<svg width="167" height="151" viewBox="0 0 167 151" fill="none" xmlns="http://www.w3.org/2000/svg">
<g clip-path="url(#clip0_26_73)">
<path d="M129.836 73.9789C108.999 73.9789 92.6709 66.364 92.6709 56.6431C92.6709 46.9222 108.992 39.3074 129.836 39.3074C150.679 39.3074 167 46.9222 167 56.6431C167 66.364 150.673 73.9789 129.836 73.9789ZM129.836 43.0958C109.888 43.0958 96.4814 50.0972 96.4814 56.6368C96.4814 63.1764 109.882 70.1778 129.836 70.1778C149.79 70.1778 163.19 63.1764 163.19 56.6368C163.19 50.0972 149.79 43.0958 129.836 43.0958Z" fill="white"/>
<path d="M129.836 94.4768C128.026 94.4768 126.222 94.4199 124.489 94.3124C123.441 94.2428 122.64 93.3447 122.71 92.2948C122.78 91.2513 123.676 90.467 124.736 90.5239C126.394 90.6315 128.115 90.682 129.842 90.682C149.796 90.682 163.197 83.6744 163.197 77.1347V56.6493C163.197 55.5995 164.048 54.752 165.102 54.752C166.156 54.752 167.007 55.5995 167.007 56.6493V77.1347C167.007 86.862 150.679 94.4768 129.842 94.4768H129.836Z" fill="white"/>
<path d="M129.836 114.127H129.22C128.165 114.127 127.314 113.28 127.314 112.23C127.314 111.18 128.165 110.333 129.22 110.333H129.836C149.79 110.333 163.19 103.338 163.19 96.798V74.6112C163.19 73.5614 164.041 72.7139 165.095 72.7139C166.149 72.7139 167 73.5614 167 74.6112V96.798C167 106.513 150.673 114.127 129.836 114.127Z" fill="white"/>
<path d="M129.835 133.784C128.451 133.784 127.041 133.746 125.523 133.671C124.475 133.62 123.662 132.728 123.713 131.685C123.764 130.641 124.679 129.838 125.707 129.882C127.162 129.952 128.508 129.99 129.829 129.99C149.783 129.99 163.183 122.982 163.183 116.442V95.957C163.183 94.9071 164.034 94.0596 165.089 94.0596C166.143 94.0596 166.994 94.9071 166.994 95.957V116.442C166.994 126.17 150.666 133.784 129.829 133.784H129.835Z" fill="white"/>
<path d="M37.1647 34.6778C16.3278 34.6778 0 27.063 0 17.3357C0 7.6085 16.3278 0 37.1647 0C58.0016 0 74.3295 7.61483 74.3295 17.3357C74.3295 27.0567 58.008 34.6715 37.1647 34.6715V34.6778ZM37.1647 3.79476C17.217 3.79476 3.81047 10.7961 3.81047 17.3357C3.81047 23.8754 17.2106 30.8767 37.1647 30.8767C57.1189 30.8767 70.519 23.8754 70.519 17.3357C70.519 10.7961 57.1189 3.79476 37.1647 3.79476Z" fill="white"/>
<path d="M37.1647 55.1697C16.3278 55.1697 0 47.5548 0 37.8339V17.3359C0 16.286 0.851004 15.4385 1.90523 15.4385C2.95946 15.4385 3.81047 16.286 3.81047 17.3359V37.8276C3.81047 44.3672 17.2106 51.3749 37.1647 51.3749C57.1189 51.3749 70.519 44.3736 70.519 37.8276V17.3359C70.519 16.286 71.37 15.4385 72.4242 15.4385C73.4785 15.4385 74.3295 16.286 74.3295 17.3359V37.8276C74.3295 47.5485 58.008 55.1697 37.1647 55.1697Z" fill="white"/>
<path d="M37.1647 74.8263C16.3278 74.8263 0 67.2115 0 57.4843V35.3039C0 34.254 0.851004 33.4065 1.90523 33.4065C2.95946 33.4065 3.81047 34.254 3.81047 35.3039V57.4843C3.81047 64.0239 17.2106 71.0253 37.1647 71.0253C57.1189 71.0253 70.519 64.0239 70.519 57.4843V35.3039C70.519 34.254 71.37 33.4065 72.4242 33.4065C73.4785 33.4065 74.3295 34.254 74.3295 35.3039V57.4843C74.3295 67.2052 58.008 74.82 37.1647 74.82V74.8263Z" fill="white"/>
<path d="M34.5038 94.4391C34.5038 94.4391 34.4593 94.4391 34.4403 94.4391C14.8037 93.794 0 86.3563 0 77.1413V56.6559C0 55.606 0.851004 54.7585 1.90523 54.7585C2.95946 54.7585 3.81047 55.606 3.81047 56.6559V77.1413C3.81047 84.0352 17.6107 90.0941 34.5673 90.6507C35.6215 90.6823 36.4408 91.5614 36.409 92.6113C36.3773 93.6359 35.5326 94.4455 34.5038 94.4455V94.4391Z" fill="white"/>
<path d="M29.9503 113.799C29.8931 113.799 29.8359 113.799 29.7724 113.792C12.2443 112.198 0 105.21 0 96.798V76.2936C0 75.2437 0.851004 74.3962 1.90523 74.3962C2.95946 74.3962 3.81047 75.2437 3.81047 76.2936V96.798C3.81047 102.971 15.1212 108.65 30.1154 110.01C31.1633 110.105 31.9381 111.028 31.8364 112.072C31.7475 113.059 30.9156 113.799 29.9439 113.799H29.9503Z" fill="white"/>
<path d="M33.5639 133.702C33.5639 133.702 33.5067 133.702 33.4749 133.702C14.0733 132.842 0 125.581 0 116.442V95.957C0 94.9071 0.851004 94.0596 1.90523 94.0596C2.95946 94.0596 3.81047 94.9071 3.81047 95.957V116.442C3.81047 123.14 17.1979 129.18 33.6464 129.907C34.7006 129.952 35.5135 130.837 35.4627 131.887C35.4183 132.905 34.5736 133.702 33.5575 133.702H33.5639Z" fill="white"/>
<path d="M79.5811 151C58.6807 151 41.6797 134.069 41.6797 113.255C41.6797 92.4405 58.6807 75.5032 79.5811 75.5032C100.482 75.5032 117.483 92.4405 117.483 113.255C117.483 134.069 100.482 151 79.5811 151ZM79.5811 79.2979C60.7828 79.2979 45.4902 94.5276 45.4902 113.255C45.4902 131.982 60.7828 147.205 79.5811 147.205C98.3794 147.205 113.672 131.976 113.672 113.255C113.672 94.5339 98.3794 79.2979 79.5811 79.2979Z" fill="white"/>
<path d="M79.5811 137.155C66.3461 137.155 55.5752 126.429 55.5752 113.248C55.5752 100.068 66.3461 89.3413 79.5811 89.3413C80.6354 89.3413 81.4864 90.1888 81.4864 91.2387C81.4864 92.2886 80.6354 93.1361 79.5811 93.1361C68.4482 93.1361 59.3857 102.155 59.3857 113.248C59.3857 124.342 68.4419 133.361 79.5811 133.361C90.7204 133.361 99.7766 124.342 99.7766 113.248C99.7766 112.198 100.628 111.351 101.682 111.351C102.736 111.351 103.587 112.198 103.587 113.248C103.587 126.429 92.8161 137.155 79.5811 137.155Z" fill="white"/>
</g>
<defs>
<clipPath id="clip0_26_73">
<rect width="167" height="151" fill="white"/>
</clipPath>
</defs>
</svg>
