<svg width="180" height="173" viewBox="0 0 180 173" fill="none" xmlns="http://www.w3.org/2000/svg">
<g clip-path="url(#clip0_26_60)">
<path d="M106.117 147.209C104.665 147.209 103.213 146.972 101.805 146.504L73.0437 136.903C71.9097 136.521 71.2957 135.299 71.6786 134.17C72.0614 133.04 73.282 132.429 74.4232 132.81L103.185 142.419C105.525 143.203 108.038 143.023 110.263 141.916C112.488 140.815 114.149 138.924 114.929 136.593C116.554 131.767 113.932 126.517 109.086 124.899L80.3243 115.297C79.1686 114.909 77.9696 114.758 76.7634 114.844L33.2387 122.331L32.502 118.081L76.1278 110.579C76.1928 110.565 76.2578 110.558 76.3228 110.558C78.1574 110.414 79.9631 110.63 81.7038 111.212L110.465 120.814C117.58 123.187 121.429 130.89 119.039 137.974C117.883 141.398 115.456 144.167 112.191 145.785C110.27 146.734 108.197 147.216 106.124 147.216L106.117 147.209Z" fill="white"/>
<path d="M113.326 173C112.524 173 111.715 172.928 110.913 172.784L32.4663 158.565C31.289 158.35 30.5089 157.228 30.7256 156.055C30.9423 154.883 32.0763 154.106 33.2464 154.322L111.693 168.541C113.831 168.929 116.042 168.541 117.92 167.469L170.242 137.413C175.428 134.428 177.212 127.805 174.214 122.641C171.224 117.477 164.565 115.707 159.379 118.685L113.615 144.994C112.575 145.591 111.253 145.238 110.653 144.203C110.054 143.174 110.408 141.851 111.448 141.254L157.212 114.945C164.463 110.774 173.781 113.255 177.97 120.483C182.159 127.711 179.667 136.982 172.408 141.153L120.086 171.209C118.021 172.396 115.688 173.007 113.333 173.007L113.326 173Z" fill="white"/>
<path d="M17.5876 168.332H5.96605C2.67967 168.332 0 165.671 0 162.391V114.24C0 110.968 2.67245 108.299 5.96605 108.299H17.5876C20.874 108.299 23.5536 110.96 23.5536 114.24V162.391C23.5536 165.664 20.8812 168.332 17.5876 168.332ZM5.96605 112.615C5.08487 112.615 4.33369 113.355 4.33369 114.24V162.391C4.33369 163.269 5.07765 164.017 5.96605 164.017H17.5876C18.4832 164.017 19.2199 163.291 19.2199 162.391V114.24C19.2199 113.363 18.476 112.615 17.5876 112.615H5.96605Z" fill="white"/>
<path d="M59.5671 44.7927C47.1655 44.7927 37.0752 34.7453 37.0752 22.3964C37.0752 10.0474 47.1655 0 59.5671 0C71.9687 0 82.0589 10.0474 82.0589 22.3964C82.0589 34.7453 71.9687 44.7927 59.5671 44.7927ZM59.5671 4.31529C49.5562 4.31529 41.4089 12.428 41.4089 22.3964C41.4089 32.3647 49.5562 40.4774 59.5671 40.4774C69.5779 40.4774 77.7253 32.3647 77.7253 22.3964C77.7253 12.428 69.5779 4.31529 59.5671 4.31529Z" fill="white"/>
<path d="M132.438 96.9862C113.102 96.9862 97.3779 81.3217 97.3779 62.0755C97.3779 42.8293 113.109 27.1648 132.438 27.1648C151.766 27.1648 167.497 42.8293 167.497 62.0755C167.497 81.3217 151.766 96.9862 132.438 96.9862ZM132.438 31.4729C115.493 31.4729 101.712 45.2027 101.712 62.0683C101.712 78.9339 115.5 92.6637 132.438 92.6637C149.375 92.6637 163.163 78.9411 163.163 62.0683C163.163 45.1955 149.375 31.4729 132.438 31.4729Z" fill="white"/>
<path d="M131.874 79.3726C131.13 79.3726 130.372 79.3151 129.599 79.1856C127.36 78.8188 125.272 77.927 123.568 76.618C122.622 75.8916 122.448 74.5323 123.178 73.5901C123.907 72.648 125.272 72.4753 126.219 73.2018C127.353 74.0792 128.768 74.669 130.299 74.9279C134.308 75.5824 137.985 73.7196 138.476 70.7636C138.967 67.8076 136.099 64.866 132.083 64.2044C125.713 63.1543 121.242 57.9904 122.116 52.6825C122.997 47.3747 128.898 43.9225 135.269 44.9582C137.508 45.325 139.595 46.2168 141.3 47.5258C142.246 48.2522 142.419 49.6115 141.69 50.5537C140.96 51.4958 139.595 51.6685 138.649 50.942C137.515 50.0646 136.099 49.4748 134.568 49.2159C130.552 48.5542 126.883 50.4242 126.392 53.3802C125.901 56.3362 128.768 59.2777 132.791 59.9394C139.169 60.9895 143.633 66.1534 142.759 71.4613C141.986 76.129 137.327 79.3726 131.874 79.3726Z" fill="white"/>
</g>
<defs>
<clipPath id="clip0_26_60">
<rect width="180" height="173" fill="white"/>
</clipPath>
</defs>
</svg>
