<svg width="165" height="170" viewBox="0 0 165 170" fill="none" xmlns="http://www.w3.org/2000/svg">
<g clip-path="url(#clip0_26_94)">
<path d="M55.2984 155.263C54.2793 155.263 53.4566 154.439 53.4566 153.418C53.4566 149.791 51.9217 146.305 49.2387 143.864C46.8688 141.7 43.7929 140.513 40.582 140.513C38.912 140.513 37.3096 140.821 35.8116 141.429C34.8661 141.81 33.7916 141.356 33.411 140.415C33.0303 139.468 33.4847 138.392 34.424 138.011C36.3641 137.224 38.4331 136.824 40.5758 136.824C44.7077 136.824 48.6677 138.355 51.7129 141.14C55.1572 144.282 57.1342 148.758 57.1342 153.425C57.1342 154.445 56.3115 155.269 55.2923 155.269L55.2984 155.263Z" fill="#00263E"/>
<path d="M40.5826 170C31.447 170 24.0059 162.561 24.0059 153.419C24.0059 152.091 24.1655 150.769 24.4847 149.49C24.7303 148.5 25.7249 147.897 26.7134 148.143C27.7019 148.389 28.3035 149.385 28.058 150.375C27.8124 151.365 27.6896 152.386 27.6896 153.419C27.6896 160.526 33.473 166.312 40.5826 166.312C41.6018 166.312 42.4245 167.135 42.4245 168.156C42.4245 169.177 41.6018 170 40.5826 170Z" fill="#00263E"/>
<path d="M69.5671 170H20.0394C8.98828 170 0 160.999 0 149.932C0 138.865 8.98828 129.864 20.0394 129.864C26.6947 129.864 32.9018 133.16 36.6469 138.675C38.894 142.007 40.0789 145.899 40.0789 149.932C40.0789 150.953 39.2562 151.777 38.237 151.777C37.2179 151.777 36.3952 150.953 36.3952 149.932C36.3952 146.637 35.4251 143.464 33.5955 140.747C30.538 136.246 25.4729 133.553 20.0394 133.553C11.0205 133.553 3.68372 140.9 3.68372 149.932C3.68372 158.964 11.0205 166.311 20.0394 166.311H69.5671C70.5862 166.311 71.4089 167.135 71.4089 168.156C71.4089 169.176 70.5862 170 69.5671 170Z" fill="#00263E"/>
<path d="M109.701 155.263C108.682 155.263 107.859 154.439 107.859 153.418C107.859 148.758 109.836 144.276 113.281 141.134C116.332 138.349 120.286 136.818 124.418 136.818C126.56 136.818 128.629 137.218 130.57 138.004C131.515 138.386 131.969 139.462 131.583 140.408C131.202 141.355 130.127 141.81 129.182 141.423C127.684 140.814 126.082 140.507 124.412 140.507C121.201 140.507 118.125 141.7 115.755 143.858C113.072 146.305 111.537 149.785 111.537 153.412C111.537 154.433 110.714 155.257 109.695 155.257L109.701 155.263Z" fill="#00263E"/>
<path d="M124.417 170C123.398 170 122.575 169.177 122.575 168.156C122.575 167.135 123.398 166.311 124.417 166.311C131.527 166.311 137.31 160.526 137.31 153.419C137.31 152.392 137.187 151.365 136.942 150.375C136.696 149.385 137.298 148.389 138.286 148.143C139.275 147.904 140.275 148.5 140.515 149.49C140.828 150.769 140.994 152.09 140.994 153.419C140.994 162.561 133.559 170 124.417 170Z" fill="#00263E"/>
<path d="M144.96 170H95.4327C94.4135 170 93.5908 169.176 93.5908 168.156C93.5908 167.135 94.4135 166.311 95.4327 166.311H144.96C153.979 166.311 161.316 158.964 161.316 149.932C161.316 140.9 153.979 133.553 144.96 133.553C139.527 133.553 134.462 136.246 131.404 140.747C129.575 143.458 128.611 146.637 128.611 149.932C128.611 150.953 127.788 151.777 126.769 151.777C125.75 151.777 124.927 150.953 124.927 149.932C124.927 145.899 126.112 142.007 128.359 138.681C132.104 133.16 138.311 129.864 144.966 129.864C156.018 129.864 165.006 138.865 165.006 149.932C165.006 160.999 156.018 170 144.966 170H144.96Z" fill="#00263E"/>
<path d="M56.9752 120.439H24.3313C23.7972 120.439 23.2937 120.211 22.9438 119.812C22.5938 119.412 22.4342 118.877 22.5079 118.355C26.0872 91.5849 38.3294 79.8109 52.7696 68.2091C53.3038 67.7788 54.0405 67.6804 54.6667 67.9632C55.293 68.2399 55.7166 68.8486 55.7596 69.5372L58.8171 118.49C58.8478 119 58.6697 119.498 58.3198 119.867C57.9698 120.236 57.4848 120.451 56.9752 120.451V120.439ZM26.4556 116.75H55.0106L52.2969 73.3368C40.0915 83.4446 29.9428 94.4623 26.4556 116.75Z" fill="#00263E"/>
<path d="M109.051 104.343H55.9746C55.0045 104.343 54.2002 103.586 54.1388 102.615L51.7383 64.3356C51.7383 39.7917 60.2722 21.3407 81.2081 0.534901C81.9264 -0.1783 83.0806 -0.1783 83.8051 0.534901C104.741 21.3407 113.281 39.7917 113.281 64.2188L110.887 102.615C110.825 103.586 110.021 104.343 109.051 104.343ZM57.7059 100.654H107.319L109.597 64.102C109.597 41.3841 101.726 23.9599 82.5035 4.45136C63.2868 23.9537 55.4159 41.3841 55.4159 64.2127L57.6998 100.647L57.7059 100.654Z" fill="#00263E"/>
<path d="M140.682 120.439H108.038C107.528 120.439 107.043 120.23 106.693 119.855C106.343 119.486 106.165 118.981 106.196 118.477L109.253 69.5247C109.296 68.8361 109.72 68.2336 110.346 67.9507C110.972 67.6741 111.709 67.7663 112.243 68.1967C126.677 79.7923 138.92 91.5724 142.499 118.342C142.573 118.871 142.413 119.4 142.063 119.799C141.713 120.199 141.21 120.426 140.675 120.426L140.682 120.439ZM109.996 116.75H138.551C135.058 94.4621 124.915 83.4506 112.71 73.3366L109.996 116.75Z" fill="#00263E"/>
<path d="M82.5092 142.652C82.3251 142.652 82.1347 142.621 81.9567 142.566C79.2492 141.712 73.3184 135.459 73.3184 122.424C73.3184 121.262 73.4043 120.119 73.5701 119.037C73.7297 118.028 74.6752 117.34 75.6759 117.5C76.6828 117.653 77.3705 118.6 77.2108 119.608C77.0696 120.506 77.0021 121.459 77.0021 122.431C77.0021 132.157 80.7656 137.377 82.5092 138.723C84.2467 137.371 88.0103 132.139 88.0103 122.431C88.0103 121.391 87.9427 120.445 87.8138 119.608C87.6542 118.6 88.3418 117.659 89.3487 117.5C90.3494 117.346 91.2949 118.028 91.4546 119.037C91.6142 120.057 91.694 121.201 91.694 122.431C91.694 135.453 85.7755 141.718 83.0741 142.572C82.896 142.628 82.7057 142.658 82.5154 142.658L82.5092 142.652Z" fill="#00263E"/>
<path d="M82.5029 59.3371C75.8968 59.3371 70.5186 53.9574 70.5186 47.3357C70.5186 40.714 75.8906 35.3342 82.5029 35.3342C89.1152 35.3342 94.4873 40.714 94.4873 47.3357C94.4873 53.9574 89.1091 59.3371 82.5029 59.3371ZM82.5029 39.0293C77.929 39.0293 74.2023 42.7552 74.2023 47.3418C74.2023 51.9284 77.9228 55.6543 82.5029 55.6543C87.083 55.6543 90.8036 51.9284 90.8036 47.3418C90.8036 42.7552 87.083 39.0293 82.5029 39.0293Z" fill="#00263E"/>
</g>
<defs>
<clipPath id="clip0_26_94">
<rect width="165" height="170" fill="white"/>
</clipPath>
</defs>
</svg>
