<svg width="192" height="161" viewBox="0 0 192 161" fill="none" xmlns="http://www.w3.org/2000/svg">
<g clip-path="url(#clip0_26_110)">
<path d="M189.925 161C189.295 161 188.673 160.717 188.264 160.171L125.406 76.5879L103.443 92.2856C102.516 92.956 101.216 92.7418 100.552 91.8017C99.8875 90.8685 100.102 89.576 101.036 88.9124L124.645 72.0396C125.558 71.3829 126.838 71.5834 127.509 72.482L191.585 157.682C192.277 158.595 192.09 159.894 191.17 160.585C190.796 160.869 190.36 161 189.925 161Z" fill="#00263E"/>
<path d="M2.0755 161C1.75729 161 1.43909 160.924 1.13473 160.772C0.110947 160.253 -0.290264 159.002 0.228543 157.979L57.1382 46.3809C57.4771 45.7173 58.1481 45.2818 58.8952 45.2542C59.6354 45.2196 60.3479 45.5929 60.7422 46.2219L116.49 134.858L131.777 124.054C132.711 123.39 134.005 123.611 134.669 124.545L158.195 157.723C158.859 158.656 158.638 159.949 157.704 160.613C156.77 161.276 155.469 161.055 154.812 160.122L132.483 128.63L117.098 139.503C116.635 139.834 116.054 139.959 115.494 139.841C114.933 139.731 114.449 139.392 114.145 138.908L59.1788 51.5097L3.92245 159.866C3.55582 160.585 2.82949 161 2.06858 161H2.0755Z" fill="#00263E"/>
<path d="M58.6117 98.9485C58.0237 98.9485 57.4357 98.6996 57.0276 98.2158L41.4772 79.8983C40.7371 79.0274 40.8408 77.714 41.7194 76.9744C42.5979 76.2348 43.9053 76.3385 44.6454 77.2164L58.8676 93.9786L67.7081 86.693C68.5935 85.9673 69.9009 86.0848 70.6273 86.9765C71.3536 87.8612 71.2291 89.1676 70.3437 89.8934L59.926 98.4784C59.5386 98.7964 59.0752 98.9554 58.6048 98.9554L58.6117 98.9485Z" fill="#00263E"/>
<path d="M58.9917 49.3948C57.8504 49.3948 56.9234 48.4755 56.9165 47.3419L56.7297 24.7734C56.7297 24.7734 56.7297 24.725 56.7297 24.7043V24.6697L56.543 2.10125C56.543 1.54827 56.7574 1.01602 57.1448 0.622026C57.5322 0.228028 58.0648 0.00683594 58.6182 0.00683594H95.7994C96.6018 0.00683594 97.3281 0.469956 97.674 1.18883C98.0198 1.91462 97.9161 2.77173 97.4042 3.38692L89.2416 13.3889L97.4042 23.391C97.9092 24.0131 98.0129 24.8702 97.674 25.5891C97.3281 26.3148 96.6018 26.771 95.7994 26.771H60.894L61.067 47.3004C61.0739 48.4478 60.1539 49.381 59.0125 49.3948H58.9917ZM60.8594 22.6237H91.4275L84.9597 14.6954C84.3372 13.935 84.3372 12.836 84.9597 12.0756L91.4275 4.14727H60.7073L60.8594 22.6237Z" fill="#00263E"/>
</g>
<defs>
<clipPath id="clip0_26_110">
<rect width="192" height="161" fill="white"/>
</clipPath>
</defs>
</svg>
