<svg width="156" height="144" viewBox="0 0 156 144" fill="none" xmlns="http://www.w3.org/2000/svg">
<g clip-path="url(#clip0_26_46)">
<path d="M90.7901 133.612C89.8375 133.612 89.0544 132.843 89.0368 131.885C89.0193 130.91 89.7907 130.105 90.755 130.087C124.798 129.447 152.493 101.063 152.493 66.815C152.493 32.5673 124.254 3.52524 89.5453 3.52524C58.1735 3.52524 31.3543 27.0562 27.164 58.2663C27.0354 59.2298 26.1471 59.9173 25.1945 59.7762C24.236 59.647 23.5639 58.7598 23.6925 57.7904C28.1108 24.847 56.426 0 89.5453 0C126.189 0 156 29.9704 156 66.8091C156 84.4353 149.238 101.063 136.954 113.63C124.687 126.18 108.305 133.277 90.8193 133.606H90.7843L90.7901 133.612Z" fill="white"/>
<path d="M37.4437 55.8398C37.3092 55.8398 37.169 55.8222 37.0287 55.7928C36.0878 55.5637 35.5092 54.6119 35.7371 53.6659C41.7742 28.6426 63.9005 11.1633 89.5391 11.1633C100.526 11.1633 111.134 14.383 120.215 20.4817C121.022 21.0222 121.238 22.1151 120.701 22.9259C120.163 23.7367 119.076 23.9541 118.269 23.4135C109.766 17.7085 99.8366 14.6944 89.5391 14.6944C65.5252 14.6944 44.8015 31.0633 39.1443 54.5002C38.9515 55.3052 38.2326 55.8457 37.4437 55.8457V55.8398Z" fill="white"/>
<path d="M89.5454 122.467C88.1837 122.467 86.8162 122.414 85.4778 122.314C84.5135 122.237 83.7889 121.391 83.8648 120.422C83.9408 119.452 84.7765 118.695 85.7467 118.8C86.9974 118.894 88.2714 118.947 89.5454 118.947C118.141 118.947 141.407 95.5631 141.407 66.8207C141.407 65.8454 142.19 65.0581 143.16 65.0581C144.131 65.0581 144.914 65.8454 144.914 66.8207C144.914 97.5079 120.076 122.472 89.5454 122.472V122.467Z" fill="white"/>
<path d="M89.8373 61.7092C88.8671 61.7092 88.084 60.9219 88.084 59.9466V32.579C88.084 31.6037 88.8671 30.8164 89.8373 30.8164C90.8074 30.8164 91.5905 31.6037 91.5905 32.579V59.9466C91.5905 60.9219 90.8074 61.7092 89.8373 61.7092Z" fill="white"/>
<path d="M111.589 90.7454C111.139 90.7454 110.689 90.575 110.35 90.2284L93.2619 73.0487C92.5781 72.3613 92.5781 71.245 93.2619 70.5576C93.9456 69.8701 95.056 69.8701 95.7398 70.5576L112.828 87.7372C113.512 88.4246 113.512 89.541 112.828 90.2284C112.484 90.575 112.039 90.7454 111.589 90.7454Z" fill="white"/>
<path d="M89.8372 75.4224C85.1092 75.4224 81.2695 71.5564 81.2695 66.8091C81.2695 62.0618 85.115 58.1958 89.8372 58.1958C94.5593 58.1958 98.4048 62.0618 98.4048 66.8091C98.4048 71.5564 94.5593 75.4224 89.8372 75.4224ZM89.8372 61.7152C87.0436 61.7152 84.7761 64.0007 84.7761 66.8032C84.7761 69.6058 87.0495 71.8913 89.8372 71.8913C92.6249 71.8913 94.8983 69.6058 94.8983 66.8032C94.8983 64.0007 92.6249 61.7152 89.8372 61.7152Z" fill="white"/>
<path d="M79.6627 144C78.6925 144 77.9094 143.213 77.9094 142.237C77.9094 125.698 65.3911 117.308 40.705 117.308C16.019 117.308 3.50068 125.692 3.50068 142.237C3.50068 143.213 2.71755 144 1.74741 144C0.777267 144 -0.00585938 143.213 -0.00585938 142.237C-0.00585938 123.624 14.0729 113.783 40.705 113.783C67.3372 113.783 81.4159 123.624 81.4159 142.237C81.4159 143.213 80.6328 144 79.6627 144Z" fill="white"/>
<path d="M40.7111 104.717C29.7239 104.717 20.7881 95.7337 20.7881 84.6879C20.7881 73.6422 29.7239 64.6528 40.7111 64.6528C51.6982 64.6528 60.634 73.6363 60.634 84.6879C60.634 95.7395 51.6982 104.717 40.7111 104.717ZM40.7111 68.1781C31.6584 68.1781 24.2946 75.5811 24.2946 84.6879C24.2946 93.7948 31.6584 101.192 40.7111 101.192C49.7638 101.192 57.1275 93.7889 57.1275 84.6879C57.1275 75.5869 49.7638 68.1781 40.7111 68.1781Z" fill="white"/>
</g>
<defs>
<clipPath id="clip0_26_46">
<rect width="156" height="144" fill="white"/>
</clipPath>
</defs>
</svg>
