<svg width="124" height="124" viewBox="0 0 124 124" fill="none" xmlns="http://www.w3.org/2000/svg">
<g id="fluent:people-community-24-filled">
<path id="Vector" d="M38.7507 41.3333C42.8615 41.3333 46.804 39.7002 49.7108 36.7934C52.6176 33.8866 54.2507 29.9441 54.2507 25.8333C54.2507 21.7224 52.6176 17.7799 49.7108 14.8731C46.804 11.9663 42.8615 10.3333 38.7507 10.3333C34.6398 10.3333 30.6973 11.9663 27.7905 14.8731C24.8837 17.7799 23.2507 21.7224 23.2507 25.8333C23.2507 29.9441 24.8837 33.8866 27.7905 36.7934C30.6973 39.7002 34.6398 41.3333 38.7507 41.3333ZM10.334 55.6346C10.334 50.5816 14.4208 46.4999 19.4687 46.4999H44.0982C42.2816 49.6403 41.3279 53.2053 41.334 56.8333C41.3305 59.7658 41.9527 62.6653 43.1591 65.3382C44.3655 68.0111 46.1282 70.3959 48.3297 72.3333H42.7187C39.8067 72.3334 36.9641 73.2217 34.5703 74.8798C32.1765 76.5378 30.3454 78.8866 29.3215 81.6126C21.5818 79.7216 16.782 75.5004 13.9558 70.7988C10.334 64.7693 10.334 58.5693 10.334 57.4894V55.6346ZM82.6673 56.8333C82.6736 53.2053 81.72 49.6402 79.9032 46.4999H104.533C109.586 46.4999 113.667 50.5868 113.667 55.6346V57.4946C113.667 58.5641 113.667 64.7693 110.051 70.7988C107.219 75.5004 102.419 79.7216 94.6798 81.6126C93.6565 78.8862 91.8256 76.537 89.4317 74.8789C87.0377 73.2207 84.1948 72.3326 81.2827 72.3333H75.6717C77.8731 70.3959 79.6358 68.0111 80.8422 65.3382C82.0486 62.6653 82.6708 59.7658 82.6673 56.8333ZM100.751 25.8333C100.751 29.9441 99.1176 33.8866 96.2108 36.7934C93.304 39.7002 89.3615 41.3333 85.2507 41.3333C81.1398 41.3333 77.1973 39.7002 74.2905 36.7934C71.3837 33.8866 69.7507 29.9441 69.7507 25.8333C69.7507 21.7224 71.3837 17.7799 74.2905 14.8731C77.1973 11.9663 81.1398 10.3333 85.2507 10.3333C89.3615 10.3333 93.304 11.9663 96.2108 14.8731C99.1176 17.7799 100.751 21.7224 100.751 25.8333ZM33.584 86.6346C33.584 81.5816 37.6708 77.4999 42.7187 77.4999H81.2827C86.3305 77.4999 90.4173 81.5868 90.4173 86.6346V88.4946C90.4173 89.5641 90.4173 95.7692 86.8007 101.799C82.9618 108.174 75.5012 113.667 62.0007 113.667C48.5002 113.667 41.0343 108.174 37.2007 101.799C33.584 95.7692 33.584 89.5693 33.584 88.4894V86.6346ZM62.0007 72.3333C64.0361 72.3333 66.0517 71.9323 67.9322 71.1534C69.8128 70.3744 71.5215 69.2327 72.9608 67.7934C74.4001 66.3541 75.5418 64.6454 76.3208 62.7648C77.0997 60.8843 77.5007 58.8687 77.5007 56.8333C77.5007 54.7978 77.0997 52.7822 76.3208 50.9017C75.5418 49.0211 74.4001 47.3124 72.9608 45.8731C71.5215 44.4338 69.8128 43.2921 67.9322 42.5131C66.0517 41.7342 64.0361 41.3333 62.0007 41.3333C57.8898 41.3333 53.9473 42.9663 51.0405 45.8731C48.1337 48.7799 46.5007 52.7224 46.5007 56.8333C46.5007 60.9441 48.1337 64.8866 51.0405 67.7934C53.9473 70.7002 57.8898 72.3333 62.0007 72.3333Z" fill="#E1B77E"/>
</g>
</svg>
