<svg width="105" height="103" viewBox="0 0 105 103" fill="none" xmlns="http://www.w3.org/2000/svg">
<g id="_&#196;&#130;&#226;&#128;&#152;&#196;&#130;&#194;&#171;&#196;&#130;&#194;&#174;&#196;&#130;&#194;&#169;_1" clip-path="url(#clip0_28_176)">
<path id="Vector" d="M68.5787 103C67.8401 103 67.2438 102.399 67.2438 101.654V29.6804H53.9169V101.649C53.9169 102.394 53.3206 102.995 52.582 102.995C51.8433 102.995 51.2471 102.394 51.2471 101.649V28.3343C51.2471 27.5895 51.8433 26.9883 52.582 26.9883H68.5787C69.3174 26.9883 69.9136 27.5895 69.9136 28.3343V101.649C69.9136 102.394 69.3174 102.995 68.5787 102.995V103Z" fill="#00263E"/>
<path id="Vector_2" d="M42.9527 103C42.2141 103 41.6178 102.399 41.6178 101.654V45.8108H28.2909V101.654C28.2909 102.399 27.6947 103 26.956 103C26.2174 103 25.6211 102.399 25.6211 101.654V44.4647C25.6211 43.7199 26.2174 43.1187 26.956 43.1187H42.9527C43.6914 43.1187 44.2877 43.7199 44.2877 44.4647V101.654C44.2877 102.399 43.6914 103 42.9527 103Z" fill="#00263E"/>
<path id="Vector_3" d="M17.3317 103C16.593 103 15.9967 102.399 15.9967 101.654V61.9411H2.66983V101.654C2.66983 102.399 2.07357 103 1.33492 103C0.596262 103 0 102.399 0 101.654V60.5951C0 59.8503 0.596262 59.249 1.33492 59.249H17.3317C18.0703 59.249 18.6666 59.8503 18.6666 60.5951V101.654C18.6666 102.399 18.0703 103 17.3317 103Z" fill="#00263E"/>
<path id="Vector_4" d="M94.2009 103C93.4622 103 92.866 102.399 92.866 101.654V17.638C92.866 16.8932 93.4622 16.2919 94.2009 16.2919H100.257L86.2047 3.18137L72.1481 16.2919H78.2041C78.9428 16.2919 79.5391 16.8932 79.5391 17.638V101.654C79.5391 102.399 78.9428 103 78.2041 103C77.4655 103 76.8692 102.399 76.8692 101.654V18.984H68.7396C68.1923 18.984 67.6984 18.643 67.4981 18.127C67.2979 17.6111 67.4314 17.0233 67.8363 16.6464L85.297 0.359145C85.8087 -0.11646 86.6008 -0.11646 87.108 0.359145L104.569 16.6464C104.974 17.0233 105.107 17.6111 104.907 18.127C104.707 18.643 104.213 18.984 103.665 18.984H95.5358V101.654C95.5358 102.399 94.9395 103 94.2009 103Z" fill="#00263E"/>
</g>
<defs>
<clipPath id="clip0_28_176">
<rect width="105" height="103" fill="white"/>
</clipPath>
</defs>
</svg>
