<svg width="105" height="104" viewBox="0 0 105 104" fill="none" xmlns="http://www.w3.org/2000/svg">
<g id="_&#195;&#131;&#226;&#128;&#152;&#195;&#131;&#194;&#171;&#195;&#131;&#194;&#174;&#195;&#131;&#194;&#169;_1">
<path id="Vector" d="M75.6131 63.3522C75.3148 63.3522 75.0204 63.241 74.7919 63.0146C74.3387 62.5657 74.3387 61.8368 74.7919 61.3879L78.8667 57.3481L73.2309 51.7737C72.8978 51.4437 72.7971 50.945 72.983 50.5153L76.0585 43.2489C76.2405 42.8192 76.6627 42.543 77.1314 42.543H85.0564V31.233H77.1314C76.6627 31.233 76.2405 30.9529 76.0585 30.5271L72.983 23.2607C72.801 22.831 72.9017 22.3323 73.2348 22.0024L78.8706 16.4279L70.8062 8.4288L65.1897 13.9917C64.8566 14.3217 64.3608 14.4176 63.927 14.2411L56.5637 11.2525C56.1299 11.076 55.8432 10.654 55.8432 10.1859V2.3019H44.4477V10.1859C44.4477 10.654 44.1611 11.0722 43.7273 11.2525L36.3562 14.2411C35.9224 14.4138 35.4266 14.3178 35.0935 13.9917L29.4848 8.4288L25.4138 12.4686C24.9607 12.9175 24.2247 12.9175 23.7715 12.4686C23.3183 12.0198 23.3183 11.2908 23.7715 10.842L28.6636 5.98495C28.8805 5.77011 29.1788 5.64734 29.4848 5.64734C29.7947 5.64734 30.089 5.77011 30.3059 5.98495L36.1896 11.8203L42.1237 9.41479V1.15095C42.1237 0.514092 42.6427 0 43.2857 0H57.0053C57.6482 0 58.1673 0.514092 58.1673 1.15095V9.41479L64.0936 11.8203L69.985 5.98495C70.2019 5.77011 70.5002 5.64734 70.8062 5.64734C71.116 5.64734 71.4104 5.77011 71.6273 5.98495L81.3341 15.6146C81.7872 16.0635 81.7872 16.7924 81.3341 17.2413L75.431 23.0804L77.9061 28.9273H86.2223C86.8653 28.9273 87.3843 29.4414 87.3843 30.0782V43.6901C87.3843 44.327 86.8653 44.8411 86.2223 44.8411H77.9061L75.431 50.6879L81.3341 56.5271C81.551 56.7419 81.6749 57.0373 81.6749 57.3404C81.6749 57.6435 81.5548 57.9389 81.3341 58.1538L76.442 63.0108C76.2134 63.2371 75.9152 63.3484 75.6208 63.3484L75.6131 63.3522Z" fill="#00263E"/>
<g id="Group">
<path id="Vector_2" d="M51.0591 104H35.1123C34.4693 104 33.9503 103.486 33.9503 102.849V93.1233L26.831 90.2344L19.9015 97.0979C19.6846 97.3128 19.3863 97.4355 19.0803 97.4355C18.7705 97.4355 18.4761 97.3128 18.2592 97.0979L6.97986 85.9184C6.52667 85.4695 6.52667 84.7405 6.97986 84.2917L13.9249 77.4128L10.9578 70.3882H1.16202C0.519035 70.3882 0 69.8741 0 69.2372V53.4193C0 52.7825 0.519035 52.2684 1.16202 52.2684H10.9578L13.9249 45.2437L6.97986 38.3649C6.52667 37.916 6.52667 37.1871 6.97986 36.7382L18.2592 25.5586C18.693 25.1251 19.4677 25.1251 19.9015 25.5586L26.831 32.4221L33.9503 29.5332V19.8077C33.9503 19.1708 34.4693 18.6567 35.1123 18.6567H51.0591C51.7021 18.6567 52.2211 19.1708 52.2211 19.8077V29.5332L59.3404 32.4221L66.2699 25.5586C66.4868 25.3438 66.7851 25.221 67.0911 25.221C67.401 25.221 67.6953 25.3438 67.9122 25.5586L79.1916 36.7382C79.6448 37.1871 79.6448 37.916 79.1916 38.3649L72.2466 45.2437L75.2175 52.2684H85.0133C85.6563 52.2684 86.1753 52.7825 86.1753 53.4193V69.2372C86.1753 69.8741 85.6563 70.3882 85.0133 70.3882H75.2175L72.2466 77.4128L79.1916 84.2917C79.6448 84.7405 79.6448 85.4695 79.1916 85.9184L67.9122 97.0979C67.4784 97.5276 66.7037 97.5315 66.2699 97.0979L59.3404 90.2344L52.2211 93.1233V102.849C52.2211 103.486 51.7021 104 51.0591 104ZM36.2743 101.698H49.8971V92.3483C49.8971 91.8803 50.1837 91.4621 50.6175 91.2818L59.1739 87.8098C59.6077 87.6333 60.1035 87.733 60.4366 88.063L67.0911 94.6541L76.7281 85.1012L70.0504 78.487C69.7172 78.1571 69.6165 77.6584 69.7986 77.2287L73.366 68.7845C73.548 68.3548 73.9702 68.0786 74.4389 68.0786H83.8474V54.5626H74.4389C73.9702 54.5626 73.548 54.2825 73.366 53.8567L69.7986 45.4125C69.6165 44.9828 69.7172 44.4841 70.0504 44.1542L76.7281 37.54L67.0911 27.9871L60.4366 34.5782C60.1035 34.9043 59.6077 35.0041 59.1739 34.8314L50.6175 31.3594C50.1798 31.1829 49.8971 30.7609 49.8971 30.2929V20.9433H36.2743V30.2929C36.2743 30.7609 35.9877 31.1791 35.5539 31.3594L26.9976 34.8314C26.5637 35.0041 26.068 34.9082 25.7348 34.5782L19.0803 27.9871L9.44334 37.54L16.1172 44.1542C16.4503 44.4841 16.551 44.9828 16.369 45.4125L12.8016 53.8567C12.6195 54.2864 12.1973 54.5626 11.7286 54.5626H2.32404V68.0786H11.7325C12.2012 68.0786 12.6234 68.3587 12.8054 68.7845L16.3728 77.2287C16.5549 77.6584 16.4542 78.1571 16.1211 78.487L9.44721 85.1012L19.0842 94.6541L25.7387 88.063C26.0718 87.733 26.5676 87.6371 27.0014 87.8098L35.5578 91.2818C35.9955 91.4583 36.2782 91.8803 36.2782 92.3483V101.698H36.2743Z" fill="#00263E"/>
<path id="Vector_3" d="M43.0765 81.7019C31.7313 81.7019 22.501 72.5595 22.501 61.3224C22.501 50.0853 31.7313 40.9429 43.0765 40.9429C54.4216 40.9429 63.6519 50.0853 63.6519 61.3224C63.6519 72.5595 54.4216 81.7019 43.0765 81.7019ZM43.0765 43.2409C33.0134 43.2409 24.825 51.3513 24.825 61.3186C24.825 71.2858 33.0134 79.3962 43.0765 79.3962C53.1395 79.3962 61.3279 71.2858 61.3279 61.3186C61.3279 51.3513 53.1395 43.2409 43.0765 43.2409Z" fill="#00263E"/>
</g>
</g>
</svg>
