<svg width="92" height="101" viewBox="0 0 92 101" fill="none" xmlns="http://www.w3.org/2000/svg">
<g id="_&#196;&#130;&#226;&#128;&#152;&#196;&#130;&#194;&#171;&#196;&#130;&#194;&#174;&#196;&#130;&#194;&#169;_1" clip-path="url(#clip0_28_268)">
<path id="Vector" d="M46 101C45.8382 101 45.6763 100.966 45.527 100.904C19.4025 90.0768 0.257261 54.8155 0 17.0575C0 16.7063 0.141079 16.3675 0.39834 16.1292C0.655602 15.8908 1.00415 15.7737 1.34855 15.7988C2.78838 15.9243 4.3278 15.987 5.92946 15.987C20.1577 15.987 34.0913 10.4251 45.1618 0.32179C45.6349 -0.113123 46.3568 -0.113123 46.834 0.32179C57.9046 10.421 71.8382 15.987 86.0664 15.987C87.6888 15.987 89.1909 15.9243 90.6473 15.7988C90.9959 15.7695 91.3402 15.8866 91.5975 16.1292C91.8548 16.3675 92 16.7063 91.9959 17.0575C91.7386 54.8155 72.5934 90.0768 46.4689 100.904C46.3154 100.966 46.1577 101 45.9958 101H46ZM2.50622 18.3999C3.19087 54.4433 21.3154 87.827 46 98.3861C70.6805 87.827 88.8091 54.4433 89.4938 18.3999C88.3942 18.4668 87.2614 18.4961 86.0664 18.4961C71.5768 18.4961 57.39 12.9761 46 2.93126C34.6058 12.9802 20.4232 18.4961 5.93361 18.4961C4.75519 18.4961 3.60996 18.4626 2.50622 18.3957V18.3999Z" fill="#00263E"/>
<path id="Vector_2" d="M46 91.9924C45.8132 91.9924 45.6265 91.9506 45.4522 91.8627C25.5684 82.0145 10.4356 55.4012 7.79664 25.639C7.7676 25.3003 7.87548 24.9615 8.0954 24.7023C8.31946 24.443 8.63482 24.2883 8.97507 24.2715C21.9502 23.6233 34.4937 18.9146 45.2448 10.6471C45.7925 10.2289 46.5726 10.3334 46.9875 10.8854C47.4066 11.4374 47.2987 12.2236 46.7551 12.6418C35.9585 20.9386 23.4149 25.7854 10.3983 26.697C13.2738 55.0918 27.7012 80.2665 46.5477 89.6045C47.1659 89.9098 47.4191 90.6626 47.1161 91.2856C46.9004 91.7289 46.4564 91.9882 45.9958 91.9882L46 91.9924Z" fill="#00263E"/>
<path id="Vector_3" d="M40.606 62.3137C40.2865 62.3137 39.967 62.1924 39.7264 61.9457L29.5604 51.7001C29.0749 51.2108 29.0749 50.4163 29.5604 49.927C30.0459 49.4377 30.8343 49.4377 31.3197 49.927L40.606 59.286L60.6807 39.0542C61.1662 38.5649 61.9546 38.5649 62.4401 39.0542C62.9255 39.5435 62.9255 40.338 62.4401 40.8273L41.4857 61.9457C41.2409 62.1924 40.9255 62.3137 40.606 62.3137Z" fill="#00263E"/>
</g>
<defs>
<clipPath id="clip0_28_268">
<rect width="92" height="101" fill="white"/>
</clipPath>
</defs>
</svg>
