<svg width="114" height="112" viewBox="0 0 114 112" fill="none" xmlns="http://www.w3.org/2000/svg">
<g id="_&#196;&#130;&#226;&#128;&#152;&#196;&#130;&#194;&#171;&#196;&#130;&#194;&#174;&#196;&#130;&#194;&#169;_1" clip-path="url(#clip0_28_161)">
<g id="Group">
<path id="Vector" d="M100.882 74.2453C98.6505 74.2453 96.5042 73.0002 95.4697 70.8657L84.1918 47.6305C82.7467 44.657 83.9981 41.0648 86.9774 39.6225L94.0983 36.1811C97.0814 34.7427 100.677 35.9878 102.122 38.9613L113.4 62.1965C114.097 63.6311 114.19 65.259 113.663 66.7747C113.136 68.2905 112.052 69.5085 110.614 70.2045L103.493 73.6498C102.653 74.0558 101.762 74.2491 100.886 74.2491L100.882 74.2453ZM96.7095 37.9018C96.171 37.9018 95.6286 38.0178 95.1133 38.2692L87.9924 41.7106C86.1677 42.5922 85.4006 44.7962 86.2839 46.6174L97.5619 69.8527C98.4491 71.6778 100.654 72.4356 102.478 71.5579L109.599 68.1126C110.479 67.6873 111.141 66.941 111.467 66.0091C111.792 65.0772 111.734 64.0835 111.308 63.2057L100.03 39.9705C99.3944 38.6636 98.0771 37.898 96.7095 37.898V37.9018Z" fill="#00263E"/>
<path id="Vector_2" d="M12.8629 74.0441C11.8517 74.0441 10.8328 73.7889 9.89522 73.2553L3.02616 69.3383C0.151459 67.6988 -0.851973 64.0293 0.790711 61.1602L13.6261 38.7447C14.4203 37.3604 15.7105 36.3628 17.2602 35.9413C18.8099 35.5198 20.4293 35.7209 21.8163 36.5136L28.6854 40.4306C31.5601 42.0701 32.5635 45.7396 30.9208 48.6087L18.0854 71.0242C16.9774 72.9576 14.9472 74.0441 12.8629 74.0441ZM18.8564 38.0448C18.5309 38.0448 18.1977 38.0873 17.8723 38.1763C16.9192 38.4353 16.1289 39.0463 15.6446 39.8931L2.8092 62.3086C1.80189 64.0679 2.4179 66.3145 4.18069 67.3199L11.0497 71.2369C12.8125 72.2422 15.0635 71.6274 16.0708 69.8719L28.9062 47.4564C29.9135 45.6971 29.2975 43.4505 27.5386 42.4451L20.6695 38.5281C20.1116 38.2111 19.4917 38.0448 18.8602 38.0448H18.8564Z" fill="#00263E"/>
<path id="Vector_3" d="M21.7159 75.1886C21.433 75.1886 21.1502 75.088 20.9294 74.8831L16.5515 70.8501C16.1524 70.4827 16.0633 69.8911 16.3307 69.4194L28.6547 47.9165C28.9723 47.3635 29.6775 47.1702 30.2354 47.4834L38.0769 51.9108L47.716 51.7368C47.716 51.7368 47.7315 51.7368 47.7392 51.7368C48.3708 51.7368 48.8899 52.2434 48.9015 52.8775C48.9132 53.5194 48.4017 54.0453 47.7586 54.0569L37.8018 54.2386C37.5926 54.2425 37.3872 54.1922 37.209 54.0878L30.0959 50.0703L18.8063 69.7713L22.5062 73.1779C22.9789 73.6109 23.006 74.3456 22.5721 74.8174C22.3435 75.0648 22.0297 75.1886 21.7159 75.1886Z" fill="#00263E"/>
<path id="Vector_4" d="M63.7123 112C62.1083 112 60.5896 111.409 59.4118 110.318L53.3757 104.762C52.9031 104.329 52.876 103.594 53.3099 103.122C53.7438 102.65 54.4799 102.623 54.9526 103.056L60.9925 108.617C61.779 109.344 62.7979 109.723 63.8789 109.68C64.9559 109.638 65.9516 109.181 66.6761 108.4L67.0402 108.006C68.5396 106.386 68.4505 103.849 66.8427 102.349L62.2749 98.1224C62.0463 97.9136 61.9146 97.6197 61.903 97.3065C61.8875 96.8387 62.1548 96.3979 62.5848 96.2007C63.011 96.0073 63.5108 96.0769 63.8556 96.394L69.5779 101.688C70.3644 102.415 71.3949 102.797 72.4681 102.751C73.5451 102.708 74.5331 102.256 75.2537 101.479L75.645 101.069C77.1288 99.4603 77.0397 96.9199 75.428 95.4196L70.8564 91.201C70.531 90.9032 70.407 90.447 70.531 90.0255C70.6433 89.6388 70.9532 89.3295 71.3407 89.2251C71.732 89.1168 72.1465 89.2096 72.4448 89.4841L78.171 94.7777C79.7982 96.278 82.3513 96.1775 83.8545 94.5573L84.2264 94.1552C85.7219 92.5389 85.6289 90.0023 84.025 88.5059L79.4572 84.2795C79.2287 84.0707 79.0969 83.7768 79.0853 83.4636C79.0698 82.9958 79.3371 82.5549 79.7633 82.3577C80.1895 82.1644 80.6893 82.234 81.0341 82.5511L86.7563 87.8446C87.5428 88.5716 88.5734 88.9544 89.6465 88.908C90.7236 88.8655 91.7154 88.413 92.4399 87.6281L92.8273 87.2221C94.3111 85.6135 94.222 83.077 92.6103 81.5728L72.8206 63.3373C72.348 62.9042 72.3209 62.1695 72.7548 61.6978C73.1887 61.226 73.9287 61.199 74.3975 61.632L94.191 79.8676C96.7364 82.2417 96.8836 86.2477 94.5203 88.8036L94.1329 89.2096C92.9978 90.4354 91.4326 91.1546 89.7318 91.2203C88.9918 91.2435 88.2712 91.1507 87.5854 90.9419C87.7133 92.6394 87.167 94.3794 85.9272 95.725L85.5553 96.1272C83.839 97.9755 81.2626 98.5671 79.0001 97.8672C79.1279 99.5647 78.5817 101.312 77.338 102.654L76.9467 103.064C75.8154 104.286 74.2502 105.005 72.5533 105.071C71.8133 105.098 71.0888 105.001 70.4031 104.789C70.531 106.486 69.9808 108.23 68.741 109.576L68.373 109.974C67.2223 111.211 65.6533 111.931 63.9602 111.996C63.875 111.996 63.7859 112 63.7006 112H63.7123Z" fill="#00263E"/>
<g id="Group_2">
<path id="Vector_5" d="M30.8166 94.472C30.6035 94.472 30.3904 94.4604 30.1773 94.441C28.5502 94.2748 27.0973 93.4898 26.0861 92.2293L25.7529 91.8039C23.7035 89.2287 24.0715 85.4315 26.6014 83.1695C26.613 83.1579 26.6634 83.1192 26.675 83.1076L33.4123 77.5473C34.7412 76.4491 36.4071 75.9426 38.0925 76.1166C39.7196 76.2867 41.1686 77.0716 42.172 78.3322L42.4975 78.7343C42.4975 78.7343 42.4975 78.7382 42.5052 78.7421C44.5276 81.2903 44.1944 85.0526 41.7497 87.3108C41.7343 87.3262 41.6916 87.361 41.6761 87.3765L34.8536 93.0065C33.6952 93.9654 32.2811 94.4758 30.8205 94.4758L30.8166 94.472ZM37.4416 78.4018C36.5195 78.4018 35.6284 78.7266 34.8923 79.3337L28.155 84.8941C26.5627 86.317 26.307 88.7685 27.5777 90.3655L27.907 90.787C28.5153 91.5448 29.4102 92.0282 30.4098 92.1287C31.4675 92.237 32.5213 91.9122 33.3659 91.2123L40.1884 85.5823C41.7226 84.1671 41.9473 81.7852 40.6805 80.1844L40.355 79.7822C39.739 79.0089 38.8518 78.5255 37.8484 78.425C37.7128 78.4095 37.5772 78.4057 37.4377 78.4057L37.4416 78.4018Z" fill="#00263E"/>
<path id="Vector_6" d="M38.6269 101.695C38.4099 101.695 38.193 101.684 37.976 101.66C36.3527 101.494 34.9037 100.705 33.8926 99.4409L33.5671 99.0388C31.5254 96.4713 31.8702 92.6935 34.3458 90.4353C34.3613 90.4237 34.4272 90.3657 34.4427 90.3541L41.2149 84.7667C42.5438 83.6685 44.2097 83.1581 45.895 83.336C47.5222 83.5022 48.9712 84.291 49.9785 85.5516L50.3039 85.9576C50.3039 85.9576 50.3039 85.9576 50.3078 85.9653C52.3301 88.5135 51.997 92.2759 49.5523 94.534C49.5291 94.5572 49.5019 94.5804 49.4748 94.5998L42.6523 100.23C41.4938 101.189 40.0836 101.699 38.623 101.699L38.6269 101.695ZM45.2519 85.6251C44.3298 85.6251 43.4387 85.9499 42.7026 86.557L35.9304 92.1444C34.342 93.5905 34.1056 95.9802 35.388 97.5926L35.7135 97.9948C36.3333 98.772 37.2205 99.2553 38.2201 99.3597C39.2816 99.468 40.3316 99.1432 41.1762 98.4433L47.9987 92.8133C49.5329 91.3942 49.7615 89.0162 48.4908 87.4154L48.1653 87.0094C47.5454 86.236 46.6582 85.7527 45.6587 85.6483C45.5231 85.6328 45.3875 85.6289 45.2519 85.6289V85.6251Z" fill="#00263E"/>
<path id="Vector_7" d="M48.4327 107.259C48.2197 107.259 48.0027 107.248 47.7896 107.229C46.1624 107.062 44.7096 106.277 43.7061 105.013L43.3807 104.611C41.3583 102.078 41.6799 98.3234 44.1129 96.0614L47.0264 93.6524C48.3553 92.5542 50.0173 92.0438 51.7065 92.2217C53.3337 92.3918 54.7826 93.1768 55.7861 94.4373L56.1115 94.8434C56.1115 94.8434 56.1115 94.8434 56.1115 94.8472C58.1184 97.3645 57.8046 101.107 55.4025 103.37L52.4581 105.798C51.3074 106.753 49.8972 107.263 48.4366 107.263L48.4327 107.259ZM51.0556 94.5031C50.1335 94.5031 49.2425 94.8279 48.5064 95.435L45.6433 97.8014C44.1439 99.1973 43.9231 101.568 45.1939 103.157L45.5193 103.563C46.1353 104.336 47.0264 104.816 48.0259 104.92C49.0875 105.028 50.1335 104.704 50.9743 104.008L53.8644 101.626C55.3367 100.234 55.5536 97.871 54.2945 96.2895L53.9691 95.8835C53.3492 95.1102 52.462 94.6268 51.4663 94.5263C51.3307 94.5108 51.1951 94.5069 51.0595 94.5069L51.0556 94.5031Z" fill="#00263E"/>
<path id="Vector_8" d="M25.0092 85.5979C24.7961 85.5979 24.583 85.5863 24.366 85.5631C22.7427 85.3968 21.2899 84.6119 20.2826 83.3552L19.9455 82.926C17.9464 80.4165 18.2602 76.6735 20.6622 74.4114L23.6067 71.9831C24.9278 70.8888 26.5821 70.3784 28.2713 70.5524C29.8946 70.7187 31.3474 71.5036 32.3547 72.7603L32.6841 73.1663C32.6841 73.1663 32.6841 73.1663 32.6841 73.1702C34.6754 75.672 34.381 79.4034 32.0061 81.6654C31.9867 81.6848 31.9673 81.7041 31.9441 81.7196L29.0345 84.1247C27.8761 85.0836 26.462 85.594 25.0014 85.594L25.0092 85.5979ZM27.6398 72.8415C26.7177 72.8415 25.8266 73.1663 25.0905 73.7734L22.2003 76.1515C20.7281 77.5435 20.5111 79.9099 21.7703 81.4914L22.1035 81.9168C22.7117 82.6746 23.6028 83.1541 24.5985 83.2547C25.6523 83.3629 26.71 83.0381 27.5545 82.3382L30.4292 79.9602C31.917 78.5179 32.1107 76.1747 30.867 74.6164L30.5416 74.2104C29.9217 73.4409 29.0345 72.9614 28.035 72.857C27.8994 72.8415 27.7676 72.8377 27.632 72.8377L27.6398 72.8415Z" fill="#00263E"/>
</g>
<path id="Vector_9" d="M88.4655 77.327C88.1246 77.327 87.7875 77.18 87.5589 76.8939C87.156 76.3951 87.2374 75.6643 87.7371 75.2621L94.8386 69.5664L84.9244 49.1385L77.5517 52.6649C77.3619 52.7539 77.1527 52.7925 76.9473 52.7732L52.3807 50.6426L39.3089 61.1563C37.6856 62.5174 37.4415 65.1042 38.7975 66.7901L39.1385 67.2155C40.5254 68.94 43.0631 69.2223 44.7949 67.838L54.5347 59.9924C54.7711 59.8029 55.0694 59.714 55.3638 59.7411L73.7162 61.3342C74.3554 61.3883 74.8281 61.9528 74.7739 62.5908C74.7196 63.2289 74.1462 63.6967 73.5147 63.6465L55.6273 62.0959L46.2477 69.6515C44.9266 70.711 43.2684 71.1866 41.5792 71.001C39.8901 70.8154 38.3752 69.9879 37.3214 68.6732L36.9805 68.2479C34.8187 65.5566 35.1983 61.5739 37.829 59.3737L51.2804 48.5546C51.5128 48.3651 51.8111 48.2762 52.1095 48.3033L76.8272 50.4454L84.9554 46.5594C85.5327 46.2848 86.2262 46.5246 86.5051 47.1007L97.3259 69.3963C97.5622 69.8835 97.4305 70.4674 97.0082 70.8077L89.1861 77.0834C88.973 77.2574 88.7134 77.3386 88.4577 77.3386L88.4655 77.327Z" fill="#00263E"/>
</g>
<g id="Group_3">
<path id="Vector_10" d="M57.01 33.2075C56.6691 33.2075 56.332 33.1998 55.9988 33.1805C47.2314 32.6546 40.3662 25.3697 40.3662 16.5999C40.3662 7.83014 47.8358 0 57.01 0C59.2222 0 61.3841 0.429208 63.4297 1.27989C64.0224 1.52736 64.3014 2.20404 64.0573 2.79565C63.8132 3.38726 63.1313 3.66953 62.5386 3.42206C60.7758 2.69125 58.9161 2.32004 57.01 2.32004C49.1143 2.32004 42.6946 8.72722 42.6946 16.5999C42.6946 24.4726 48.599 30.4119 56.1344 30.8643C56.4328 30.8798 56.7504 30.8875 57.0604 30.8875C57.196 30.8875 57.3316 30.8875 57.4633 30.8798C64.9949 30.6323 71.0697 24.5692 71.3138 17.0755C71.3331 16.4336 71.8794 15.9426 72.5148 15.9542C73.1579 15.9735 73.6577 16.511 73.6383 17.1528C73.3516 25.8646 66.2889 32.9137 57.5602 33.1998C57.3897 33.2075 57.1999 33.2075 57.0061 33.2075H57.01Z" fill="#00263E"/>
<path id="Vector_11" d="M56.9557 21.9398C56.7 21.9398 56.4443 21.8586 56.2312 21.6884L48.8237 15.811C48.32 15.4127 48.2386 14.6819 48.6377 14.1831C49.0406 13.6804 49.769 13.5992 50.2726 13.9975L56.8705 19.2292L70.0623 6.06294C70.5156 5.61053 71.2517 5.61053 71.705 6.06294C72.1583 6.51535 72.1583 7.25003 71.705 7.70243L57.7771 21.6033C57.5524 21.8276 57.254 21.9436 56.9557 21.9436V21.9398Z" fill="#00263E"/>
</g>
</g>
<defs>
<clipPath id="clip0_28_161">
<rect width="114" height="112" fill="white"/>
</clipPath>
</defs>
</svg>
