<svg width="93" height="93" viewBox="0 0 93 93" fill="none" xmlns="http://www.w3.org/2000/svg">
<g id="_&#196;&#130;&#226;&#128;&#152;&#196;&#130;&#194;&#171;&#196;&#130;&#194;&#174;&#196;&#130;&#194;&#169;_1" clip-path="url(#clip0_28_244)">
<g id="Group">
<path id="Vector" d="M91.8685 56.0533H80.2511C79.6247 56.0533 79.1191 55.5483 79.1191 54.9227C79.1191 54.2971 79.6247 53.7921 80.2511 53.7921H90.7366V12.8507H80.2511C79.6247 12.8507 79.1191 12.3457 79.1191 11.7202C79.1191 11.0946 79.6247 10.5896 80.2511 10.5896H91.8685C92.4949 10.5896 93.0005 11.0946 93.0005 11.7202V54.9189C93.0005 55.5445 92.4949 56.0495 91.8685 56.0495V56.0533Z" fill="#00263E"/>
<path id="Vector_2" d="M12.7494 56.0533H1.13194C0.505599 56.0533 0 55.5483 0 54.9227V11.7202C0 11.0946 0.505599 10.5896 1.13194 10.5896H12.7117C13.338 10.5896 13.8436 11.0946 13.8436 11.7202C13.8436 12.3457 13.338 12.8507 12.7117 12.8507H2.26388V53.7884H12.7494C13.3757 53.7884 13.8813 54.2933 13.8813 54.9189C13.8813 55.5445 13.3757 56.0495 12.7494 56.0495V56.0533Z" fill="#00263E"/>
</g>
<g id="Group_2">
<path id="Vector_3" d="M46.5229 66.6654C42.7385 66.6654 38.9389 66.0135 35.2677 64.702C26.8762 61.706 20.1563 55.6236 16.3417 47.5778C12.527 39.532 12.0818 30.4837 15.0814 22.1025C18.0811 13.7212 24.1709 7.00946 32.2265 3.19947C48.8547 -4.66171 68.7881 2.4533 76.6589 19.065C80.4735 27.1108 80.9187 36.1591 77.9191 44.5403C74.9195 52.9216 68.8296 59.6333 60.774 63.4433C56.2425 65.5876 51.3902 66.6654 46.5229 66.6654ZM46.4512 2.2611C41.9989 2.2611 37.4787 3.21831 33.1962 5.24578C25.6877 8.79575 20.0129 15.0553 17.217 22.8675C14.4211 30.6797 14.84 39.1136 18.3905 46.613C21.9448 54.1124 28.2119 59.7803 36.0336 62.5728C43.8591 65.369 52.2996 64.947 59.8081 61.4008C67.3166 57.8508 72.9914 51.5913 75.7873 43.7791C78.5832 35.9669 78.1681 27.5329 74.6138 20.0335C69.305 8.83343 58.1102 2.2611 46.455 2.2611H46.4512Z" fill="#00263E"/>
<path id="Vector_4" d="M70.6638 93C69.0489 93 67.4944 92.088 66.7586 90.5353L58.8162 73.7691C58.3257 72.7328 58.2691 71.5645 58.6577 70.4792C59.0463 69.3938 59.8312 68.5271 60.8688 68.0371L64.2759 66.428C65.3135 65.9381 66.4832 65.8815 67.5698 66.2697C68.6565 66.6579 69.5243 67.4417 70.0148 68.4781L77.9573 85.2443C78.4478 86.2806 78.5044 87.4489 78.1157 88.5342C77.7271 89.6196 76.9423 90.4863 75.9047 90.9762L72.4975 92.5854C71.9052 92.8643 71.2788 93 70.66 93H70.6638ZM66.1096 68.2783C65.8116 68.2783 65.5173 68.3424 65.2418 68.4743L61.8347 70.0835C61.3442 70.3171 60.9706 70.7279 60.7858 71.2442C60.6009 71.7605 60.6273 72.3144 60.8612 72.8044L68.8036 89.5706C69.2866 90.5881 70.5091 91.0252 71.5278 90.5429L74.935 88.9337C75.4255 88.7001 75.799 88.2893 75.9839 87.773C76.1688 87.2567 76.1424 86.7027 75.9084 86.2128L67.966 69.4466C67.7321 68.9567 67.3208 68.5836 66.8039 68.3989C66.5775 68.3198 66.3436 68.2783 66.1096 68.2783Z" fill="#00263E"/>
<g id="Group_3">
<path id="Vector_5" d="M46.5 47.8152C43.372 47.8152 40.4818 46.2814 38.9575 43.8131C38.6292 43.2817 38.7952 42.5845 39.3273 42.2566C39.8555 41.9288 40.5573 42.0908 40.8856 42.626C42.0024 44.4311 44.1531 45.5541 46.5 45.5541C50.0127 45.5541 52.8728 43.0631 52.8728 40.0031C52.8728 36.943 50.0127 34.452 46.5 34.452C41.7383 34.452 37.8633 30.9473 37.8633 26.6398C37.8633 22.3324 41.7383 18.8276 46.5 18.8276C49.6279 18.8276 52.5181 20.3614 54.0424 22.8298C54.3707 23.3612 54.2047 24.0584 53.6727 24.3862C53.1407 24.7141 52.4426 24.5483 52.1144 24.0169C50.9975 22.2118 48.8469 21.0888 46.5 21.0888C42.9872 21.0888 40.1272 23.5798 40.1272 26.6398C40.1272 29.6999 42.9872 32.1909 46.5 32.1909C51.2617 32.1909 55.1367 35.6956 55.1367 40.0031C55.1367 44.3105 51.2617 47.8152 46.5 47.8152Z" fill="#00263E"/>
<path id="Vector_6" d="M46.5001 21.0887C45.8738 21.0887 45.3682 20.5837 45.3682 19.9582V16.6569C45.3682 16.0314 45.8738 15.5264 46.5001 15.5264C47.1264 15.5264 47.632 16.0314 47.632 16.6569V19.9582C47.632 20.5837 47.1264 21.0887 46.5001 21.0887Z" fill="#00263E"/>
<path id="Vector_7" d="M46.5001 51.1164C45.8738 51.1164 45.3682 50.6115 45.3682 49.9859V46.6846C45.3682 46.0591 45.8738 45.5541 46.5001 45.5541C47.1264 45.5541 47.632 46.0591 47.632 46.6846V49.9859C47.632 50.6115 47.1264 51.1164 46.5001 51.1164Z" fill="#00263E"/>
</g>
</g>
</g>
<defs>
<clipPath id="clip0_28_244">
<rect width="93" height="93" fill="white"/>
</clipPath>
</defs>
</svg>
