<svg width="81" height="87" viewBox="0 0 81 87" fill="none" xmlns="http://www.w3.org/2000/svg">
<g id="_&#196;&#130;&#226;&#128;&#152;&#196;&#130;&#194;&#171;&#196;&#130;&#194;&#174;&#196;&#130;&#194;&#169;_1" clip-path="url(#clip0_28_213)">
<g id="Group">
<path id="Vector" d="M19.8102 86.9999H1.13983C0.509123 86.9999 0 86.4861 0 85.8497V65.5115C0 64.9786 0.360946 64.5186 0.873868 64.3921L1.307 64.2886C7.3101 63.2151 13.3094 61.7698 19.1985 59.9794C19.2251 59.9717 19.2479 59.964 19.2745 59.9602L19.5557 59.895C19.8938 59.8184 20.2509 59.8989 20.5207 60.1174C20.7905 60.3359 20.95 60.6656 20.95 61.0145V85.8459C20.95 86.4823 20.4409 86.996 19.8102 86.996V86.9999ZM2.28346 84.6996H18.6704V62.5403C13.2448 64.1429 7.74323 65.4579 2.28346 66.4508V84.7034V84.6996Z" fill="#00263E"/>
<path id="Vector_2" d="M49.8257 87H31.1515C30.5208 87 30.0117 86.4862 30.0117 85.8498V57.0313C30.0117 56.5291 30.3309 56.1035 30.7754 55.9463C37.2458 53.3739 43.4427 50.372 49.195 47.0136C49.2406 46.9868 49.2862 46.9638 49.3318 46.9446C49.366 46.9293 49.3964 46.9178 49.4306 46.9063C49.6966 46.8066 49.9891 46.8104 50.2627 46.9216C50.6882 47.098 50.9656 47.5197 50.9656 47.9836V85.8498C50.9656 86.4862 50.4564 87 49.8257 87ZM32.2914 84.6997H48.6859V49.9503C43.5111 52.8678 38.0095 55.5055 32.2914 57.8134V84.6997Z" fill="#00263E"/>
<path id="Vector_3" d="M79.8599 86.9999H61.1857C60.555 86.9999 60.0459 86.4862 60.0459 85.8498V40.5613C60.0459 40.2239 60.1941 39.9019 60.4524 39.6834C60.4828 39.6527 60.517 39.6259 60.555 39.5952C60.5664 39.5837 60.5778 39.576 60.593 39.5683L61.1857 39.1313C67.7207 34.2777 73.7162 28.6919 79.0012 22.5387C79.3128 22.1745 79.8143 22.048 80.2627 22.2128C80.7072 22.3815 81.0035 22.8109 81.0035 23.2901V85.8498C81.0035 86.4862 80.4944 86.9999 79.8637 86.9999H79.8599ZM62.3256 84.6996H78.7201V26.3111C73.8302 31.7053 68.3932 36.6317 62.5269 40.9869L62.3218 41.1364V84.6996H62.3256Z" fill="#00263E"/>
</g>
<g id="Group_2">
<path id="Vector_4" d="M1.13956 44.5029C0.59624 44.5029 0.113712 44.108 0.0187268 43.5521C-0.0914566 42.9272 0.322681 42.3291 0.945787 42.2218C7.17305 41.1177 13.4079 39.6186 19.4832 37.7631L19.9315 38.8289L19.5896 37.7324C19.6504 37.7133 19.715 37.6941 19.7833 37.6787C35.1482 32.9555 49.0997 25.9934 61.1819 17.0032C67.7435 12.1266 73.7352 6.54078 79.0012 0.40289C79.4116 -0.0763324 80.1335 -0.130005 80.6084 0.284043C81.0833 0.698092 81.1365 1.42651 80.7262 1.90573C75.35 8.17397 69.2329 13.8748 62.5345 18.8549C50.2396 28.0023 36.0563 35.0794 20.3799 39.8985L19.9315 38.8327L20.2735 39.9292C20.2127 39.9483 20.1481 39.9675 20.0797 39.9829C13.9854 41.8499 7.65938 43.3719 1.34093 44.4875C1.27634 44.4991 1.20795 44.5067 1.14336 44.5067L1.13956 44.5029Z" fill="#00263E"/>
<path id="Vector_5" d="M79.8556 15.0974C79.2249 15.0974 78.7158 14.5837 78.7158 13.9473V1.15013C78.7158 0.513727 79.2287 0 79.8556 0C80.4826 0 80.9955 0.513727 80.9955 1.15013V13.9473C80.9955 14.5837 80.4864 15.0974 79.8556 15.0974Z" fill="#00263E"/>
<path id="Vector_6" d="M79.8558 2.30027H66.4553C65.8246 2.30027 65.3154 1.78654 65.3154 1.15013C65.3154 0.513727 65.8284 0 66.4591 0H79.8596C80.4903 0 80.9995 0.513727 80.9995 1.15013C80.9995 1.78654 80.4903 2.30027 79.8596 2.30027H79.8558Z" fill="#00263E"/>
</g>
</g>
<defs>
<clipPath id="clip0_28_213">
<rect width="81" height="87" fill="white"/>
</clipPath>
</defs>
</svg>
