<svg width="94" height="93" viewBox="0 0 94 93" fill="none" xmlns="http://www.w3.org/2000/svg">
<g id="_&#196;&#130;&#226;&#128;&#152;&#196;&#130;&#194;&#171;&#196;&#130;&#194;&#174;&#196;&#130;&#194;&#169;_1" clip-path="url(#clip0_28_229)">
<g id="Group">
<path id="Vector" d="M83.1835 61.65C81.3434 61.65 79.5736 60.6161 78.7207 58.8438L69.4213 39.5503C68.2297 37.0812 69.2616 34.0984 71.7182 32.9007L77.5898 30.0432C80.0496 28.8488 83.0142 29.8826 84.2058 32.3517L93.5051 51.6452C94.0802 52.8364 94.1568 54.1882 93.7224 55.4468C93.2879 56.7054 92.3934 57.7168 91.2082 58.2947L85.3366 61.1555C84.6434 61.4927 83.9087 61.6532 83.1867 61.6532L83.1835 61.65ZM79.7429 31.472C79.2989 31.472 78.8517 31.5683 78.4268 31.777L72.5552 34.6346C71.0505 35.3666 70.418 37.1968 71.1464 38.709L80.4458 58.0026C81.1773 59.518 82.995 60.1474 84.4997 59.4185L90.3713 56.5577C91.0964 56.2045 91.6427 55.5848 91.911 54.8111C92.1794 54.0373 92.1315 53.2121 91.7801 52.4832L82.4807 33.1897C81.9568 32.1045 80.8706 31.4687 79.7429 31.4687V31.472Z" fill="#00263E"/>
<path id="Vector_2" d="M10.6064 61.4831C9.77264 61.4831 8.93247 61.2712 8.15938 60.8281L2.49542 57.5756C0.125059 56.2142 -0.702333 53.1672 0.652161 50.7848L11.2357 32.1719C11.8906 31.0225 12.9544 30.1941 14.2322 29.8441C15.5101 29.4941 16.8454 29.6611 17.9891 30.3193L23.653 33.5718C26.0234 34.9332 26.8508 37.9802 25.4963 40.3626L14.9127 58.9754C13.999 60.5808 12.3251 61.4831 10.6064 61.4831ZM15.5484 31.5908C15.2801 31.5908 15.0053 31.6261 14.737 31.6999C13.9511 31.9151 13.2994 32.4224 12.9001 33.1255L2.31653 51.7384C1.48594 53.1993 1.99388 55.0647 3.4474 55.8995L9.11136 59.152C10.5649 59.9868 12.4209 59.4763 13.2515 58.0186L23.8351 39.4058C24.6657 37.9449 24.1578 36.0794 22.7074 35.2446L17.0435 31.9921C16.5834 31.7288 16.0723 31.5908 15.5516 31.5908H15.5484Z" fill="#00263E"/>
<path id="Vector_3" d="M17.9064 62.4334C17.6732 62.4334 17.44 62.3499 17.2579 62.1797L13.648 58.8309C13.319 58.5259 13.2455 58.0346 13.4659 57.6429L23.6278 39.7878C23.8898 39.3287 24.4712 39.1681 24.9312 39.4282L31.397 43.1045L39.3451 42.96C39.3451 42.96 39.3579 42.96 39.3642 42.96C39.885 42.96 40.313 43.3806 40.3226 43.9072C40.3322 44.4402 39.9105 44.8769 39.3802 44.8865L31.1702 45.0374C30.9977 45.0406 30.8284 44.9989 30.6814 44.9122L24.8162 41.5762L15.5073 57.9351L18.5581 60.7638C18.9478 61.1234 18.9702 61.7334 18.6124 62.1251C18.4239 62.3306 18.1651 62.4334 17.9064 62.4334Z" fill="#00263E"/>
<path id="Vector_4" d="M52.5354 93C51.2129 93 49.9606 92.5087 48.9894 91.6033L44.0123 86.9894C43.6226 86.6298 43.6002 86.0198 43.958 85.628C44.3158 85.2363 44.9228 85.2138 45.3125 85.5735L50.2928 90.1905C50.9413 90.7942 51.7815 91.1088 52.6728 91.0735C53.5609 91.0382 54.3819 90.6593 54.9792 90.0107L55.2795 89.6832C56.5158 88.3379 56.4424 86.2317 55.1166 84.9859L51.3502 81.4765C51.1617 81.3031 51.0531 81.0591 51.0435 80.799C51.0308 80.4105 51.2512 80.0445 51.6058 79.8808C51.9572 79.7202 52.3693 79.778 52.6536 80.0413L57.372 84.4368C58.0205 85.0405 58.8702 85.3583 59.7551 85.3198C60.6432 85.2845 61.4578 84.9088 62.052 84.2635L62.3747 83.9231C63.5982 82.5874 63.5247 80.478 62.1958 79.2322L58.4262 75.7292C58.1578 75.482 58.0556 75.1031 58.1578 74.7532C58.2505 74.4321 58.506 74.1752 58.8255 74.0885C59.1481 73.9986 59.49 74.0757 59.736 74.3036L64.4575 78.6992C65.7992 79.945 67.9044 79.8615 69.1439 78.5162L69.4506 78.1823C70.6837 76.8402 70.607 74.7339 69.2845 73.4913L65.5181 69.982C65.3296 69.8086 65.221 69.5646 65.2114 69.3045C65.1987 68.916 65.4191 68.5499 65.7705 68.3862C66.1219 68.2257 66.534 68.2835 66.8183 68.5467L71.5367 72.9423C72.1852 73.5459 73.0349 73.8638 73.9198 73.8252C74.8079 73.7899 75.6257 73.4143 76.2231 72.7625L76.5425 72.4253C77.7661 71.0897 77.6926 68.9834 76.3636 67.7344L60.0458 52.5924C59.6561 52.2328 59.6337 51.6228 59.9915 51.231C60.3493 50.8393 60.9595 50.8169 61.346 51.1765L77.667 66.3185C79.7659 68.2899 79.8872 71.6162 77.9386 73.7386L77.6191 74.0757C76.6831 75.0935 75.3925 75.6907 73.9901 75.7453C73.3799 75.7645 72.7857 75.6875 72.2203 75.5141C72.3257 76.9236 71.8753 78.3685 70.853 79.4858L70.5463 79.8198C69.1312 81.3545 67.0068 81.8458 65.1411 81.2646C65.2466 82.6741 64.7961 84.1254 63.7707 85.2395L63.448 85.5799C62.5152 86.5945 61.2246 87.1917 59.8254 87.2463C59.2152 87.2687 58.6179 87.1885 58.0524 87.0119C58.1578 88.4214 57.7042 89.8695 56.6819 90.9868L56.3785 91.3175C55.4297 92.345 54.1359 92.9422 52.7399 92.9968C52.6696 92.9968 52.5961 93 52.5258 93H52.5354Z" fill="#00263E"/>
<g id="Group_2">
<path id="Vector_5" d="M25.41 78.4455C25.2343 78.4455 25.0586 78.4359 24.8829 78.4199C23.5411 78.2818 22.3432 77.63 21.5094 76.5833L21.2347 76.2301C19.5447 74.0917 19.8482 70.9388 21.9343 69.0605C21.9439 69.0508 21.9854 69.0187 21.995 69.0091L27.5503 64.392C28.646 63.4801 30.0197 63.0595 31.4093 63.204C32.7511 63.3453 33.9458 63.9971 34.7732 65.0438L35.0416 65.3777C35.0416 65.3777 35.0416 65.3809 35.0479 65.3841C36.7155 67.5 36.4408 70.6241 34.425 72.4992C34.4122 72.512 34.3771 72.5409 34.3643 72.5538L28.7387 77.2287C27.7835 78.0249 26.6175 78.4488 25.4131 78.4488L25.41 78.4455ZM30.8727 65.1016C30.1123 65.1016 29.3776 65.3713 28.7706 65.8754L23.2153 70.4925C21.9023 71.674 21.6915 73.7097 22.7393 75.0357L23.0108 75.3857C23.5124 76.015 24.2503 76.4163 25.0745 76.4998C25.9466 76.5897 26.8156 76.32 27.512 75.7389L33.1376 71.064C34.4026 69.8888 34.5879 67.911 33.5433 66.5817L33.275 66.2478C32.767 65.6057 32.0355 65.2043 31.2081 65.1208C31.0963 65.108 30.9845 65.1048 30.8695 65.1048L30.8727 65.1016Z" fill="#00263E"/>
<path id="Vector_6" d="M31.8505 84.4434C31.6716 84.4434 31.4927 84.4337 31.3138 84.4145C29.9753 84.2764 28.7805 83.6214 27.9467 82.5715L27.6784 82.2376C25.9948 80.1056 26.2792 76.9687 28.3205 75.0936C28.3333 75.084 28.3876 75.0358 28.4003 75.0262L33.9844 70.3866C35.0802 69.4747 36.4538 69.0509 37.8435 69.1986C39.1852 69.3367 40.38 69.9917 41.2105 71.0384L41.4789 71.3755C41.4789 71.3755 41.4789 71.3755 41.4821 71.3819C43.1496 73.4978 42.8749 76.6219 40.8591 78.497C40.84 78.5163 40.8176 78.5355 40.7952 78.5516L35.1696 83.2265C34.2144 84.0227 33.0516 84.4466 31.8473 84.4466L31.8505 84.4434ZM37.3132 71.0994C36.5529 71.0994 35.8181 71.3691 35.2112 71.8732L29.6271 76.5127C28.3173 77.7136 28.1224 79.6978 29.1798 81.0367L29.4482 81.3706C29.9593 82.016 30.6908 82.4174 31.515 82.504C32.3904 82.5939 33.2561 82.3242 33.9525 81.7431L39.5781 77.0682C40.8432 75.8899 41.0316 73.9152 39.9838 72.586L39.7155 72.2488C39.2044 71.6067 38.4728 71.2053 37.6486 71.1186C37.5368 71.1058 37.425 71.1026 37.3132 71.1026V71.0994Z" fill="#00263E"/>
<path id="Vector_7" d="M39.9355 89.0636C39.7598 89.0636 39.5809 89.054 39.4052 89.0379C38.0635 88.8998 36.8655 88.2481 36.0381 87.1981L35.7698 86.8642C34.1022 84.7612 34.3674 81.6435 36.3736 79.7652L38.7759 77.7649C39.8716 76.853 41.2421 76.4292 42.6349 76.5769C43.9766 76.7182 45.1714 77.37 45.9988 78.4167L46.2671 78.7538C46.2671 78.7538 46.2671 78.7538 46.2671 78.757C47.9219 80.8472 47.6632 83.9553 45.6825 85.8336L43.2547 87.8499C42.3059 88.643 41.1431 89.0668 39.9387 89.0668L39.9355 89.0636ZM42.0982 78.4713C41.3379 78.4713 40.6032 78.741 39.9962 79.2451L37.6354 81.21C36.3991 82.3691 36.217 84.3373 37.2649 85.657L37.5332 85.9941C38.0411 86.6362 38.7759 87.0344 39.6001 87.1211C40.4754 87.211 41.3379 86.9413 42.0311 86.3633L44.4143 84.3855C45.6282 83.2296 45.8071 81.2678 44.7689 79.9546L44.5005 79.6175C43.9894 78.9754 43.2579 78.574 42.4369 78.4905C42.325 78.4777 42.2132 78.4745 42.1014 78.4745L42.0982 78.4713Z" fill="#00263E"/>
<path id="Vector_8" d="M20.6216 71.0769C20.4459 71.0769 20.2702 71.0672 20.0913 71.048C18.7528 70.9099 17.5548 70.2581 16.7242 69.2146L16.4463 68.8582C14.7979 66.7744 15.0567 63.6664 17.0373 61.7881L19.4652 59.7717C20.5545 58.8631 21.9186 58.4393 23.3114 58.5838C24.6499 58.7218 25.8479 59.3736 26.6785 60.4171L26.95 60.7542C26.95 60.7542 26.95 60.7542 26.95 60.7574C28.592 62.8348 28.3492 65.9332 26.391 67.8115C26.375 67.8276 26.359 67.8436 26.3399 67.8565L23.9408 69.8536C22.9856 70.6498 21.8196 71.0737 20.6152 71.0737L20.6216 71.0769ZM22.7907 60.4845C22.0304 60.4845 21.2957 60.7542 20.6887 61.2583L18.3055 63.233C17.0916 64.3888 16.9127 66.3538 17.9509 67.667L18.2257 68.0202C18.7272 68.6495 19.462 69.0477 20.283 69.1311C21.1519 69.221 22.024 68.9513 22.7204 68.3702L25.0908 66.3956C26.3175 65.1979 26.4772 63.2522 25.4518 61.9583L25.1834 61.6211C24.6723 60.9822 23.9408 60.5841 23.1166 60.4974C23.0047 60.4845 22.8961 60.4813 22.7843 60.4813L22.7907 60.4845Z" fill="#00263E"/>
</g>
<path id="Vector_9" d="M72.9448 64.2089C72.6637 64.2089 72.3858 64.0869 72.1973 63.8493C71.8651 63.4351 71.9321 62.8283 72.3442 62.4944L78.1999 57.7649L70.025 40.8024L63.9457 43.7306C63.7892 43.8045 63.6167 43.8366 63.4474 43.8205L43.1907 42.0514L32.4122 50.7815C31.0737 51.9117 30.8724 54.0597 31.9905 55.4596L32.2716 55.8128C33.4153 57.2448 35.5077 57.4792 36.9357 56.3297L44.9668 49.815C45.1617 49.6577 45.4077 49.5839 45.6505 49.6063L60.7831 50.9292C61.3102 50.9741 61.7 51.4429 61.6552 51.9727C61.6105 52.5025 61.1377 52.891 60.617 52.8492L45.8677 51.5617L38.1337 57.8356C37.0443 58.7153 35.6771 59.1102 34.2842 58.9561C32.8914 58.802 31.6423 58.1149 30.7734 57.0232L30.4923 56.67C28.7097 54.4353 29.0228 51.1283 31.1919 49.3013L42.2834 40.3176C42.4751 40.1603 42.7211 40.0864 42.967 40.1089L63.3484 41.8877L70.0505 38.6608C70.5265 38.4329 71.0984 38.6319 71.3284 39.1103L80.2508 57.6236C80.4457 58.0282 80.337 58.513 79.9888 58.7956L73.539 64.0067C73.3633 64.1511 73.1493 64.2186 72.9384 64.2186L72.9448 64.2089Z" fill="#00263E"/>
</g>
<g id="Group_3">
<path id="Vector_10" d="M47.008 27.5741C46.7269 27.5741 46.449 27.5677 46.1742 27.5516C38.9449 27.115 33.2842 21.0659 33.2842 13.7838C33.2842 6.50181 39.4433 0 47.008 0C48.8321 0 50.6147 0.356396 52.3014 1.06277C52.7902 1.26825 53.0202 1.83014 52.8189 2.32139C52.6177 2.81264 52.0554 3.04702 51.5667 2.84153C50.1131 2.2347 48.5797 1.92646 47.008 1.92646C40.4975 1.92646 35.2041 7.24671 35.2041 13.7838C35.2041 20.321 40.0726 25.2527 46.286 25.6284C46.532 25.6412 46.794 25.6476 47.0495 25.6476C47.1614 25.6476 47.2732 25.6476 47.3818 25.6412C53.592 25.4357 58.6011 20.4012 58.8023 14.1788C58.8183 13.6458 59.2687 13.238 59.7927 13.2476C60.323 13.2637 60.7351 13.71 60.7191 14.243C60.4827 21.4769 54.659 27.3301 47.4616 27.5677C47.3211 27.5741 47.1646 27.5741 47.0048 27.5741H47.008Z" fill="#00263E"/>
<path id="Vector_11" d="M46.9638 18.2179C46.7529 18.2179 46.5421 18.1504 46.3664 18.0092L40.2584 13.1288C39.8431 12.7981 39.776 12.1912 40.105 11.7771C40.4373 11.3597 41.0379 11.2922 41.4531 11.6229L46.8935 15.9671L57.771 5.03443C58.1447 4.65877 58.7517 4.65877 59.1255 5.03443C59.4992 5.41009 59.4992 6.02014 59.1255 6.3958L47.641 17.9385C47.4557 18.1247 47.2097 18.2211 46.9638 18.2211V18.2179Z" fill="#00263E"/>
</g>
</g>
<defs>
<clipPath id="clip0_28_229">
<rect width="94" height="93" fill="white"/>
</clipPath>
</defs>
</svg>
