<svg width="94" height="81" viewBox="0 0 94 81" fill="none" xmlns="http://www.w3.org/2000/svg">
<g id="_&#196;&#130;&#226;&#128;&#152;&#196;&#130;&#194;&#171;&#196;&#130;&#194;&#174;&#196;&#130;&#194;&#169;_1" clip-path="url(#clip0_28_255)">
<g id="Group">
<g id="Group_2">
<path id="Vector" d="M65.199 63.625H28.8011C28.5597 63.625 28.3272 63.5244 28.1594 63.347C27.9917 63.1696 27.9063 62.9331 27.9181 62.6906L28.7628 46.8383C28.86 45.0316 29.7312 43.3609 31.1587 42.255C32.5863 41.1491 34.4141 40.7263 36.1802 41.0929L47 43.3402L57.8199 41.0929C59.586 40.7263 61.4138 41.1521 62.8414 42.255C64.2689 43.3609 65.1401 45.0287 65.2373 46.8383L66.082 62.6906C66.0938 62.9331 66.0084 63.1726 65.8407 63.347C65.6729 63.5244 65.4433 63.625 65.199 63.625ZM29.7341 61.8508H64.2689L63.4742 46.9329C63.4065 45.6437 62.7825 44.4491 61.7641 43.6625C60.7457 42.873 59.4388 42.5714 58.179 42.8316L47.1825 45.1144C47.0648 45.1381 46.9441 45.1381 46.8264 45.1144L35.8299 42.8316C34.5701 42.5714 33.2633 42.873 32.2448 43.6625C31.2264 44.4521 30.6024 45.6437 30.5347 46.9329L29.74 61.8508H29.7341Z" fill="#00263E"/>
<path id="Vector_2" d="M51.4058 63.625C51.0055 63.625 50.6435 63.35 50.5464 62.9449L46.9996 48.0566L43.4499 62.9449C43.3351 63.421 42.8641 63.7137 42.3844 63.6014C41.9105 63.4861 41.6191 63.007 41.7309 62.531L46.1372 44.0381C46.2314 43.6389 46.5875 43.358 46.9966 43.358C47.4058 43.358 47.759 43.6389 47.8561 44.0381L52.2624 62.531C52.3742 63.007 52.0828 63.4861 51.6089 63.6014C51.5383 63.6191 51.4706 63.625 51.4029 63.625H51.4058Z" fill="#00263E"/>
</g>
<path id="Vector_3" d="M46.9997 38.547C42.0607 38.547 38.04 33.7981 38.04 27.961C38.04 22.124 42.0578 17.3751 46.9997 17.3751C51.9417 17.3751 55.9594 22.124 55.9594 27.961C55.9594 33.7981 51.9417 38.547 46.9997 38.547ZM46.9997 19.1493C43.035 19.1493 39.8061 23.1028 39.8061 27.961C39.8061 32.8193 43.032 36.7728 46.9997 36.7728C50.9674 36.7728 54.1933 32.8193 54.1933 27.961C54.1933 23.1028 50.9674 19.1493 46.9997 19.1493Z" fill="#00263E"/>
</g>
<g id="Group_3">
<g id="Group_4">
<path id="Vector_4" d="M83.9099 55.4134C83.8069 55.4134 83.7009 55.3957 83.5979 55.3573C83.1417 55.1828 82.9121 54.6712 83.0828 54.2129C84.3602 50.8183 85.1579 47.2788 85.4552 43.695C86.8798 26.5594 76.678 10.3405 60.6483 4.24915C43.8121 -2.14675 24.4888 4.18705 14.6873 19.3119C14.5313 19.5721 14.2517 19.7466 13.9279 19.7466C13.4393 19.7466 13.0449 19.3533 13.0449 18.8624V18.8565C13.0449 18.685 13.095 18.5165 13.1862 18.3746C23.4351 2.53412 43.6561 -4.10426 61.2723 2.5903C78.0349 8.95959 88.7017 25.9237 87.2124 43.8428C86.9033 47.5923 86.0674 51.2944 84.7311 54.8427C84.5957 55.1976 84.2602 55.4164 83.904 55.4164L83.9099 55.4134Z" fill="#00263E"/>
<path id="Vector_5" d="M83.9094 55.4135C83.8034 55.4135 83.6975 55.3957 83.5974 55.3573C83.3796 55.2745 83.2001 55.1059 83.1059 54.893L78.9527 45.6437C78.7526 45.1972 78.9527 44.6708 79.3943 44.4698C79.8387 44.2657 80.3626 44.4698 80.5628 44.9133L84.3539 53.3525L92.7543 49.5439C93.1987 49.3399 93.7227 49.5439 93.9228 49.9874C94.123 50.4339 93.9228 50.9603 93.4813 51.1614L84.2744 55.3336C84.1596 55.3869 84.036 55.4135 83.9124 55.4135H83.9094Z" fill="#00263E"/>
</g>
<g id="Group_5">
<path id="Vector_6" d="M46.8678 81C42.126 81 37.34 80.1602 32.7307 78.4097C15.9651 72.0463 5.29242 55.0763 6.78177 37.1453C7.09082 33.3959 7.92675 29.6997 9.26304 26.1602C9.4367 25.7018 9.94591 25.4712 10.4021 25.6457C10.8584 25.8201 11.0879 26.3317 10.9143 26.79C9.63685 30.1757 8.8392 33.7093 8.54191 37.2961C7.11732 54.4405 17.322 70.6683 33.3547 76.7538C50.2056 83.1585 69.5436 76.807 79.3333 61.6526C79.5982 61.2415 80.1457 61.1233 80.5548 61.3923C80.964 61.6585 81.0817 62.2085 80.8138 62.6195C73.2523 74.3202 60.2484 81.0059 46.8678 81.0059V81Z" fill="#00263E"/>
<path id="Vector_7" d="M14.2433 36.6101C13.9077 36.6101 13.584 36.415 13.4368 36.0867L9.64572 27.6476L1.24529 31.4561C0.800842 31.6602 0.276919 31.4561 0.076769 31.0126C-0.123381 30.5661 0.076769 30.0398 0.518277 29.8387L9.72519 25.6664C10.1696 25.4624 10.6936 25.6664 10.8937 26.11L15.0468 35.3593C15.247 35.8058 15.0468 36.3322 14.6053 36.5332C14.4876 36.5865 14.364 36.6131 14.2433 36.6131V36.6101Z" fill="#00263E"/>
</g>
</g>
</g>
<defs>
<clipPath id="clip0_28_255">
<rect width="94" height="81" fill="white"/>
</clipPath>
</defs>
</svg>
