<svg width="90" height="91" viewBox="0 0 90 91" fill="none" xmlns="http://www.w3.org/2000/svg">
<g id="_&#196;&#130;&#226;&#128;&#152;&#196;&#130;&#194;&#171;&#196;&#130;&#194;&#174;&#196;&#130;&#194;&#169;_1" clip-path="url(#clip0_28_224)">
<path id="Vector" d="M78.1599 74.574C77.8492 74.574 77.5424 74.4531 77.3154 74.2192L67.5752 64.3612H48.7203C48.059 64.3612 47.5252 63.821 47.5252 63.1517C47.5252 62.4824 48.059 61.9421 48.7203 61.9421H68.0692C68.3879 61.9421 68.6906 62.0711 68.9137 62.2969L76.9648 70.4454V63.1557C76.9648 62.4864 77.4986 61.9461 78.1599 61.9461H79.9048C84.1554 61.9461 87.6133 58.4464 87.6133 54.1444V10.2209C87.6133 5.91883 84.1554 2.41914 79.9048 2.41914H17.9581C13.7075 2.41914 10.2496 5.91883 10.2496 10.2209V54.1444C10.2496 57.2248 12.0582 60.0229 14.8588 61.2728C15.4603 61.5429 15.7352 62.2566 15.4683 62.8694C15.2014 63.4782 14.4962 63.7565 13.8907 63.4863C10.2257 61.8494 7.85938 58.1803 7.85938 54.1444V10.2209C7.85938 4.58427 12.3889 0 17.9581 0H79.9048C85.474 0 90.0035 4.58427 90.0035 10.2209V54.1444C90.0035 59.781 85.474 64.3653 79.9048 64.3653H79.355V73.3685C79.355 73.8564 79.0642 74.2999 78.6181 74.4853C78.4707 74.5458 78.3153 74.5781 78.1599 74.5781V74.574Z" fill="#00263E"/>
<g id="Group">
<path id="Vector_2" d="M59.8153 91.0001C59.154 91.0001 58.6202 90.4598 58.6202 89.7906C58.6202 70.1995 37.1002 68.6755 30.5072 68.6755C23.9141 68.6755 2.39413 70.1995 2.39413 89.7906C2.39413 90.4598 1.86032 91.0001 1.19902 91.0001C0.537724 91.0001 0.00390625 90.4598 0.00390625 89.7906C0.00390625 72.4372 15.7595 66.2563 30.5072 66.2563C45.2549 66.2563 61.0105 72.4372 61.0105 89.7906C61.0105 90.4598 60.4766 91.0001 59.8153 91.0001Z" fill="#00263E"/>
<path id="Vector_3" d="M30.503 59.14C22.3045 59.14 15.6357 52.3906 15.6357 44.093C15.6357 35.7953 22.3045 29.0459 30.503 29.0459C38.7014 29.0459 45.3702 35.7953 45.3702 44.093C45.3702 52.3906 38.7014 59.14 30.503 59.14ZM30.503 31.465C23.6231 31.465 18.026 37.1299 18.026 44.093C18.026 51.056 23.6231 56.7209 30.503 56.7209C37.3828 56.7209 42.9799 51.056 42.9799 44.093C42.9799 37.1299 37.3828 31.465 30.503 31.465Z" fill="#00263E"/>
</g>
</g>
<defs>
<clipPath id="clip0_28_224">
<rect width="90" height="91" fill="white"/>
</clipPath>
</defs>
</svg>
