<svg width="128" height="128" viewBox="0 0 128 128" fill="none" xmlns="http://www.w3.org/2000/svg">
<g id="ph:medal-fill">
<path id="Vector" d="M108 48C108.004 40.585 106.135 33.2892 102.565 26.7901C98.9949 20.2911 93.8404 14.7996 87.5802 10.8258C81.3199 6.85206 74.1569 4.52483 66.7564 4.06031C59.356 3.59579 51.9582 5.00905 45.2502 8.16882C38.5421 11.3286 32.7414 16.1324 28.3868 22.134C24.0322 28.1356 21.265 35.1404 20.3421 42.4978C19.4193 49.8551 20.3707 57.3264 23.1082 64.2175C25.8456 71.1087 30.2802 77.1964 36 81.915V120C35.9995 120.682 36.1735 121.353 36.5054 121.949C36.8374 122.545 37.3162 123.046 37.8964 123.405C38.4766 123.764 39.139 123.968 39.8205 123.999C40.5019 124.029 41.1799 123.885 41.79 123.58L64 112.5L86.215 123.605C86.7719 123.872 87.3826 124.007 88 124C89.0609 124 90.0783 123.579 90.8284 122.828C91.5786 122.078 92 121.061 92 120V81.915C97.0047 77.7932 101.035 72.6145 103.801 66.7507C106.567 60.887 108.001 54.4835 108 48ZM28 48C28 40.8799 30.1114 33.9196 34.0671 27.9995C38.0228 22.0793 43.6453 17.4651 50.2234 14.7403C56.8015 12.0156 64.0399 11.3027 71.0233 12.6917C78.0066 14.0808 84.4212 17.5095 89.4558 22.5442C94.4905 27.5789 97.9192 33.9934 99.3083 40.9768C100.697 47.9601 99.9844 55.1985 97.2597 61.7766C94.5349 68.3547 89.9207 73.9772 84.0005 77.9329C78.0804 81.8886 71.1201 84 64 84C54.4555 83.9894 45.3049 80.1932 38.5559 73.4442C31.8068 66.6951 28.0106 57.5445 28 48ZM36 48C36 42.4621 37.6422 37.0486 40.7189 32.444C43.7955 27.8395 48.1685 24.2506 53.2849 22.1314C58.4012 20.0121 64.0311 19.4576 69.4625 20.538C74.894 21.6184 79.8831 24.2851 83.799 28.201C87.7149 32.1169 90.3816 37.106 91.462 42.5375C92.5424 47.9689 91.9879 53.5988 89.8686 58.7151C87.7494 63.8315 84.1606 68.2045 79.556 71.2812C74.9514 74.3578 69.5379 76 64 76C56.5764 75.9921 49.4591 73.0395 44.2098 67.7902C38.9605 62.5409 36.0079 55.4236 36 48Z" fill="#E1B77E"/>
</g>
</svg>
